%TF.GenerationSoftware,KiCad,Pcbnew,8.0.1*%
%TF.CreationDate,2024-07-22T07:52:40-07:00*%
%TF.ProjectId,PMOD_differential_driver,504d4f44-5f64-4696-9666-6572656e7469,1*%
%TF.SameCoordinates,Original*%
%TF.FileFunction,Copper,L4,Bot*%
%TF.FilePolarity,Positive*%
%FSLAX46Y46*%
G04 Gerber Fmt 4.6, Leading zero omitted, Abs format (unit mm)*
G04 Created by KiCad (PCBNEW 8.0.1) date 2024-07-22 07:52:40*
%MOMM*%
%LPD*%
G01*
G04 APERTURE LIST*
G04 Aperture macros list*
%AMRoundRect*
0 Rectangle with rounded corners*
0 $1 Rounding radius*
0 $2 $3 $4 $5 $6 $7 $8 $9 X,Y pos of 4 corners*
0 Add a 4 corners polygon primitive as box body*
4,1,4,$2,$3,$4,$5,$6,$7,$8,$9,$2,$3,0*
0 Add four circle primitives for the rounded corners*
1,1,$1+$1,$2,$3*
1,1,$1+$1,$4,$5*
1,1,$1+$1,$6,$7*
1,1,$1+$1,$8,$9*
0 Add four rect primitives between the rounded corners*
20,1,$1+$1,$2,$3,$4,$5,0*
20,1,$1+$1,$4,$5,$6,$7,0*
20,1,$1+$1,$6,$7,$8,$9,0*
20,1,$1+$1,$8,$9,$2,$3,0*%
G04 Aperture macros list end*
%TA.AperFunction,ComponentPad*%
%ADD10R,0.850000X0.850000*%
%TD*%
%TA.AperFunction,ComponentPad*%
%ADD11RoundRect,0.250000X0.500000X-0.500000X0.500000X0.500000X-0.500000X0.500000X-0.500000X-0.500000X0*%
%TD*%
%TA.AperFunction,ComponentPad*%
%ADD12C,1.500000*%
%TD*%
%TA.AperFunction,ComponentPad*%
%ADD13C,2.700000*%
%TD*%
%TA.AperFunction,ComponentPad*%
%ADD14R,1.700000X1.700000*%
%TD*%
%TA.AperFunction,ComponentPad*%
%ADD15O,1.700000X1.700000*%
%TD*%
%TA.AperFunction,ViaPad*%
%ADD16C,0.600000*%
%TD*%
%TA.AperFunction,Conductor*%
%ADD17C,0.254000*%
%TD*%
%TA.AperFunction,Conductor*%
%ADD18C,0.127000*%
%TD*%
%TA.AperFunction,Conductor*%
%ADD19C,0.400000*%
%TD*%
G04 APERTURE END LIST*
D10*
%TO.P,TP19,1,1*%
%TO.N,/SPI2_SDI*%
X128117600Y-62738000D03*
%TD*%
%TO.P,TP13,1,1*%
%TO.N,/SPI1_~{CS}*%
X120142000Y-58166000D03*
%TD*%
%TO.P,TP15,1,1*%
%TO.N,/SPI1_SDI*%
X143256000Y-61468000D03*
%TD*%
%TO.P,TP10,1,1*%
%TO.N,/SPI2_SCK_1*%
X226923600Y-69088000D03*
%TD*%
%TO.P,TP26,1,1*%
%TO.N,GND*%
X208076800Y-59791600D03*
%TD*%
%TO.P,TP17,1,1*%
%TO.N,/SPI2_~{CS}*%
X126238000Y-59182000D03*
%TD*%
%TO.P,TP25,1,1*%
%TO.N,GND*%
X214553800Y-76784200D03*
%TD*%
%TO.P,TP1,1,1*%
%TO.N,/SPI1_SDI_A*%
X166497000Y-61188600D03*
%TD*%
D11*
%TO.P,J2,1*%
%TO.N,/SPI1_SDI_A*%
X180469933Y-65009998D03*
D12*
%TO.P,J2,2*%
%TO.N,/SPI1_SDI_B*%
X178689933Y-66029998D03*
%TO.P,J2,3*%
%TO.N,/SPI1_SDO_Z*%
X180469933Y-67049998D03*
%TO.P,J2,4*%
%TO.N,/SPI1_SCK_1*%
X178689933Y-68069998D03*
%TO.P,J2,5*%
%TO.N,/SPI1_SCK_2*%
X180469933Y-69089998D03*
%TO.P,J2,6*%
%TO.N,/SPI1_SDO_Y*%
X178689933Y-70109998D03*
%TO.P,J2,7*%
%TO.N,Net-(J2-Pad7)*%
X180469933Y-71129998D03*
%TO.P,J2,8*%
%TO.N,Net-(J2-Pad8)*%
X178689933Y-72149998D03*
%TO.P,J2,9*%
%TO.N,Net-(J2-Pad9)*%
X173869933Y-61719998D03*
%TO.P,J2,10*%
%TO.N,+3V3*%
X173869933Y-64009998D03*
%TO.P,J2,11*%
%TO.N,GND*%
X173869933Y-73149998D03*
%TO.P,J2,12*%
%TO.N,Net-(J2-Pad12)*%
X173869933Y-75439998D03*
D13*
%TO.P,J2,SH*%
%TO.N,GND*%
X179449933Y-60449998D03*
X179449933Y-76709998D03*
%TD*%
D10*
%TO.P,TP4,1,1*%
%TO.N,/SPI1_SCK_1*%
X166598600Y-68732400D03*
%TD*%
%TO.P,TP3,1,1*%
%TO.N,/SPI1_SDO_Z*%
X169392600Y-68757800D03*
%TD*%
%TO.P,TP18,1,1*%
%TO.N,/SPI2_SCK*%
X125653800Y-62738000D03*
%TD*%
%TO.P,TP24,1,1*%
%TO.N,GND*%
X202971400Y-76784200D03*
%TD*%
%TO.P,TP5,1,1*%
%TO.N,/SPI1_SCK_2*%
X197967600Y-59791600D03*
%TD*%
%TO.P,TP12,1,1*%
%TO.N,/SPI2_SDO_Y*%
X214655400Y-72415400D03*
%TD*%
%TO.P,TP9,1,1*%
%TO.N,/SPI2_SDO_Z*%
X229895400Y-59563000D03*
%TD*%
D14*
%TO.P,J1,1,Pin_1*%
%TO.N,+3V3*%
X122632600Y-74930000D03*
D15*
%TO.P,J1,2,Pin_2*%
%TO.N,GND*%
X122632600Y-72390000D03*
%TO.P,J1,3,Pin_3*%
%TO.N,/SPI2_SDO*%
X122632600Y-69850000D03*
%TO.P,J1,4,Pin_4*%
%TO.N,/SPI2_SDI*%
X122632600Y-67310000D03*
%TO.P,J1,5,Pin_5*%
%TO.N,/SPI2_SCK*%
X122632600Y-64770000D03*
%TO.P,J1,6,Pin_6*%
%TO.N,/SPI2_~{CS}*%
X122632600Y-62230000D03*
%TO.P,J1,7,Pin_7*%
%TO.N,+3V3*%
X120092600Y-74930000D03*
%TO.P,J1,8,Pin_8*%
%TO.N,GND*%
X120092600Y-72390000D03*
%TO.P,J1,9,Pin_9*%
%TO.N,/SPI1_SDO*%
X120092600Y-69850000D03*
%TO.P,J1,10,Pin_10*%
%TO.N,/SPI1_SDI*%
X120092600Y-67310000D03*
%TO.P,J1,11,Pin_11*%
%TO.N,/SPI1_SCK*%
X120092600Y-64770000D03*
%TO.P,J1,12,Pin_12*%
%TO.N,/SPI1_~{CS}*%
X120092600Y-62230000D03*
%TD*%
D10*
%TO.P,TP2,1,1*%
%TO.N,/SPI1_SDI_B*%
X169443400Y-66065400D03*
%TD*%
%TO.P,TP21,1,1*%
%TO.N,GND*%
X137693400Y-58928000D03*
%TD*%
%TO.P,TP7,1,1*%
%TO.N,/SPI2_SDI_A*%
X216154000Y-60731400D03*
%TD*%
%TO.P,TP14,1,1*%
%TO.N,/SPI1_SCK*%
X128803400Y-78003400D03*
%TD*%
%TO.P,TP6,1,1*%
%TO.N,/SPI1_SDO_Y*%
X159435800Y-68707000D03*
%TD*%
%TO.P,TP23,1,1*%
%TO.N,GND*%
X169951400Y-58191400D03*
%TD*%
%TO.P,TP8,1,1*%
%TO.N,/SPI2_SDI_B*%
X213639400Y-60731400D03*
%TD*%
%TO.P,TP16,1,1*%
%TO.N,/SPI1_SDO*%
X125933200Y-68275200D03*
%TD*%
D11*
%TO.P,J3,1*%
%TO.N,/SPI2_SDI_A*%
X244916000Y-65009997D03*
D12*
%TO.P,J3,2*%
%TO.N,/SPI2_SDI_B*%
X243136000Y-66029997D03*
%TO.P,J3,3*%
%TO.N,/SPI2_SDO_Z*%
X244916000Y-67049997D03*
%TO.P,J3,4*%
%TO.N,/SPI2_SCK_1*%
X243136000Y-68069997D03*
%TO.P,J3,5*%
%TO.N,/SPI2_SCK_2*%
X244916000Y-69089997D03*
%TO.P,J3,6*%
%TO.N,/SPI2_SDO_Y*%
X243136000Y-70109998D03*
%TO.P,J3,7*%
%TO.N,Net-(J3-Pad7)*%
X244916000Y-71129998D03*
%TO.P,J3,8*%
%TO.N,Net-(J3-Pad8)*%
X243136000Y-72149996D03*
%TO.P,J3,9*%
%TO.N,Net-(J3-Pad9)*%
X238316000Y-61719997D03*
%TO.P,J3,10*%
%TO.N,+3V3*%
X238316000Y-64009997D03*
%TO.P,J3,11*%
%TO.N,GND*%
X238316000Y-73149997D03*
%TO.P,J3,12*%
%TO.N,Net-(J3-Pad12)*%
X238316000Y-75439997D03*
D13*
%TO.P,J3,SH*%
%TO.N,GND*%
X243896000Y-60449997D03*
X243896000Y-76709997D03*
%TD*%
D10*
%TO.P,TP22,1,1*%
%TO.N,GND*%
X134188200Y-77978000D03*
%TD*%
%TO.P,TP20,1,1*%
%TO.N,/SPI2_SDO*%
X130149600Y-68300600D03*
%TD*%
%TO.P,TP11,1,1*%
%TO.N,/SPI2_SCK_2*%
X226949000Y-71374000D03*
%TD*%
D16*
%TO.N,/SPI1_SCK*%
X145897600Y-72745600D03*
%TO.N,+3V3*%
X161163000Y-64262000D03*
X179095400Y-63238000D03*
X184912000Y-64473200D03*
%TO.N,/SPI2_SCK*%
X126873000Y-72593200D03*
%TO.N,Net-(J2-Pad7)*%
X170662600Y-71653400D03*
%TO.N,/SPI1_SDO_Z*%
X153924000Y-64998600D03*
X171094400Y-67049998D03*
%TO.N,/SPI1_SCK_1*%
X176199800Y-70358000D03*
X164592000Y-70408800D03*
X176326800Y-68249800D03*
%TO.N,Net-(J2-Pad8)*%
X170764200Y-73888600D03*
X176664465Y-74175465D03*
%TO.N,Net-(J2-Pad9)*%
X170637200Y-61722000D03*
%TO.N,/SPI1_SDI_A*%
X158164656Y-63755144D03*
%TO.N,GND*%
X210500000Y-77724000D03*
X133172200Y-74625200D03*
X157599344Y-64321207D03*
X234451261Y-73735997D03*
X160919194Y-72058100D03*
X151942800Y-74396600D03*
X159987400Y-75209400D03*
X119075200Y-66065400D03*
X233934000Y-78232000D03*
X155903006Y-65380367D03*
X151447734Y-67514699D03*
X123977400Y-63474600D03*
X146474508Y-75692503D03*
X122174000Y-58674000D03*
X205500000Y-77724000D03*
X147574000Y-66217800D03*
X200500000Y-77724000D03*
X230632000Y-67056000D03*
X132207000Y-62026800D03*
X144642510Y-66354099D03*
X182364000Y-71132797D03*
X140952211Y-74415362D03*
X119049800Y-68656200D03*
X152120600Y-70180200D03*
X143052800Y-64363600D03*
X176771397Y-62169997D03*
X123698000Y-71094600D03*
X145639306Y-70349779D03*
X141144907Y-75389064D03*
X132054600Y-66090800D03*
X133426200Y-70383400D03*
X146174906Y-77324844D03*
X154254200Y-59182000D03*
X190500000Y-77724000D03*
X119100600Y-71145400D03*
X154832907Y-64470921D03*
X159020736Y-72613168D03*
X159994600Y-73482200D03*
X156550348Y-63957624D03*
X176000131Y-64621306D03*
X147980400Y-62128400D03*
X248666000Y-65866000D03*
X171086427Y-61060034D03*
X141092966Y-72169849D03*
X141464193Y-67057222D03*
X150622000Y-59182000D03*
X145600487Y-72002816D03*
X195500000Y-77724000D03*
X210500000Y-60706000D03*
X119151400Y-63550800D03*
X175590200Y-69773800D03*
X124079000Y-69164200D03*
X176963386Y-70736999D03*
X228934000Y-78232000D03*
X160470163Y-77153700D03*
X248666000Y-70866000D03*
X168021000Y-72974200D03*
X124714000Y-59182000D03*
X161636685Y-72933875D03*
X124071879Y-64778108D03*
X176914873Y-68876800D03*
X137997497Y-76443000D03*
X233045000Y-73304400D03*
X200500000Y-60706000D03*
X225632000Y-67056000D03*
X185515901Y-78198942D03*
X167108603Y-73911997D03*
X118110000Y-59182000D03*
X140122169Y-63949297D03*
X164899693Y-71147264D03*
X172532025Y-76930636D03*
X140023313Y-78518287D03*
X140921844Y-70994831D03*
X139192000Y-64185800D03*
X171444854Y-63522234D03*
X127352676Y-66116836D03*
X195500000Y-60706000D03*
X164465000Y-59309000D03*
X205500000Y-60706000D03*
X128778000Y-59182000D03*
X140935200Y-61404597D03*
X140914430Y-76584830D03*
X160653740Y-63563721D03*
X124675900Y-76746100D03*
X126695200Y-73406000D03*
X187501500Y-68858412D03*
X190500000Y-60706000D03*
X127584200Y-72212200D03*
X156327349Y-75447432D03*
%TO.N,/SPI1_SDO_Y*%
X152196800Y-67233800D03*
%TO.N,/SPI1_SDI_B*%
X155918982Y-64448929D03*
%TO.N,/SPI1_SDO*%
X126585093Y-65891400D03*
X143992600Y-65887600D03*
%TO.N,/SPI1_SDI*%
X124866400Y-64871600D03*
X143840200Y-64592200D03*
%TO.N,/SPI1_~{CS}*%
X168046400Y-59258200D03*
%TO.N,/SPI2_~{CS}*%
X233095800Y-60147200D03*
%TO.N,/SPI2_SCK_Y*%
X141564445Y-72816155D03*
X138758803Y-76198603D03*
%TO.N,/SPI2_SCK_Z*%
X134899400Y-75666600D03*
X140589000Y-77952600D03*
%TO.N,/SPI2_SDI_B*%
X174920623Y-69335999D03*
X140935200Y-63893645D03*
X175234600Y-64389000D03*
X213614000Y-66029997D03*
%TO.N,/SPI2_SDI_A*%
X214202900Y-65402997D03*
X140935200Y-62204600D03*
%TO.N,Net-(J3-Pad7)*%
X240614200Y-71299997D03*
%TO.N,/SPI2_SDO_Z*%
X177571400Y-62169997D03*
X139192000Y-63385797D03*
X172135800Y-63119000D03*
%TO.N,/SPI2_SDO_Y*%
X182364000Y-71932800D03*
X144872356Y-70577356D03*
X173304200Y-77139800D03*
X145694400Y-75869800D03*
X140665200Y-67097400D03*
%TO.N,/SPI1_SCK_Z*%
X159718428Y-76745927D03*
X153949400Y-75133200D03*
%TO.N,/SPI1_SCK_Y*%
X159677701Y-75946962D03*
X155515303Y-75432296D03*
%TO.N,/SPI1_SCK_B*%
X160324800Y-72593200D03*
X161218500Y-73615876D03*
%TO.N,/SPI2_SCK_1*%
X186690000Y-68783200D03*
X141732000Y-71450200D03*
X184734200Y-78028800D03*
%TO.N,/SPI2_SCK_2*%
X146075400Y-78122500D03*
X233934000Y-74362997D03*
%TD*%
D17*
%TO.N,/SPI1_SCK*%
X126435488Y-74033000D02*
X126068200Y-73665712D01*
X142265400Y-70231000D02*
X136679688Y-70231000D01*
X126068200Y-73665712D02*
X122001912Y-73665712D01*
X132877688Y-74033000D02*
X129286000Y-74033000D01*
X122001912Y-73665712D02*
X121386600Y-73050400D01*
X121386600Y-66064000D02*
X120092600Y-64770000D01*
D18*
X128803400Y-78003400D02*
X129286000Y-77520800D01*
D17*
X144780000Y-72745600D02*
X142265400Y-70231000D01*
D18*
X129286000Y-77520800D02*
X129286000Y-74033000D01*
D17*
X145897600Y-72745600D02*
X144780000Y-72745600D01*
X136679688Y-70231000D02*
X132877688Y-74033000D01*
X129286000Y-74033000D02*
X126435488Y-74033000D01*
X121386600Y-73050400D02*
X121386600Y-66064000D01*
D19*
%TO.N,+3V3*%
X185375203Y-64009997D02*
X238316000Y-64009997D01*
X161163000Y-64262000D02*
X173617932Y-64262000D01*
X184912000Y-64473200D02*
X185375203Y-64009997D01*
X178838544Y-63494856D02*
X179095400Y-63238000D01*
X173617932Y-64262000D02*
X174385076Y-63494856D01*
X174385076Y-63494856D02*
X178838544Y-63494856D01*
%TO.N,/SPI2_SCK*%
X124841000Y-66776600D02*
X124841000Y-70561200D01*
X122490000Y-64770000D02*
X122834400Y-64770000D01*
X122834400Y-64770000D02*
X124841000Y-66776600D01*
X124841000Y-70561200D02*
X126873000Y-72593200D01*
D17*
%TO.N,Net-(J2-Pad7)*%
X170662600Y-71653400D02*
X175768000Y-71653400D01*
X179476400Y-73406000D02*
X180469934Y-72412466D01*
X180469934Y-72412466D02*
X180469934Y-71129998D01*
X177520600Y-73406000D02*
X179476400Y-73406000D01*
X175768000Y-71653400D02*
X177520600Y-73406000D01*
D18*
%TO.N,/SPI1_SDO_Z*%
X171094400Y-67049998D02*
X180469933Y-67049998D01*
X171094400Y-67049998D02*
X156686598Y-67049998D01*
X156686598Y-67049998D02*
X154635200Y-64998600D01*
X154635200Y-64998600D02*
X153924000Y-64998600D01*
D17*
%TO.N,/SPI1_SCK_1*%
X164592000Y-70408800D02*
X176149000Y-70408800D01*
X176326800Y-68249800D02*
X178510131Y-68249800D01*
X176149000Y-70408800D02*
X176199800Y-70358000D01*
X178510131Y-68249800D02*
X178689933Y-68069998D01*
%TO.N,Net-(J2-Pad8)*%
X171221400Y-73888600D02*
X170764200Y-73888600D01*
X171627800Y-74295000D02*
X171221400Y-73888600D01*
X176664465Y-74175465D02*
X176544930Y-74295000D01*
X176544930Y-74295000D02*
X171627800Y-74295000D01*
%TO.N,Net-(J2-Pad9)*%
X170637200Y-61722000D02*
X170992800Y-61722000D01*
X170994803Y-61719997D02*
X173869933Y-61719997D01*
X170992800Y-61722000D02*
X170994803Y-61719997D01*
D18*
%TO.N,/SPI1_SDI_A*%
X179422041Y-65328800D02*
X180151131Y-65328800D01*
X177957825Y-65328800D02*
X178270127Y-65016498D01*
X158164656Y-63755144D02*
X159738312Y-65328800D01*
X159738312Y-65328800D02*
X177957825Y-65328800D01*
X180151131Y-65328800D02*
X180469933Y-65009998D01*
X178270127Y-65016498D02*
X179109739Y-65016498D01*
X179109739Y-65016498D02*
X179422041Y-65328800D01*
D17*
%TO.N,/SPI1_SDO_Y*%
X152781000Y-67818000D02*
X159435800Y-67818000D01*
X176434112Y-69731000D02*
X176459512Y-69731000D01*
X176826800Y-70109999D02*
X178689933Y-70109999D01*
X176826800Y-70098288D02*
X176826800Y-70109999D01*
D18*
X159435800Y-68707000D02*
X159435800Y-67818000D01*
D17*
X159435800Y-67818000D02*
X174521112Y-67818000D01*
X176459512Y-69731000D02*
X176826800Y-70098288D01*
X152196800Y-67233800D02*
X152781000Y-67818000D01*
X174521112Y-67818000D02*
X176434112Y-69731000D01*
D19*
%TO.N,/SPI1_SDI_B*%
X157542587Y-66029998D02*
X178689932Y-66029998D01*
X155961518Y-64448929D02*
X157542587Y-66029998D01*
X155918982Y-64448929D02*
X155961518Y-64448929D01*
D17*
%TO.N,/SPI1_SDO*%
X128168400Y-65463800D02*
X132314312Y-65463800D01*
X132314312Y-65463800D02*
X132788912Y-65938400D01*
X132788912Y-65938400D02*
X143941800Y-65938400D01*
X127012693Y-65463800D02*
X128168400Y-65463800D01*
X143941800Y-65938400D02*
X143992600Y-65887600D01*
X126585093Y-65891400D02*
X127012693Y-65463800D01*
%TO.N,/SPI1_SDI*%
X143840200Y-64592200D02*
X143154400Y-65278000D01*
X125004600Y-65009800D02*
X124866400Y-64871600D01*
X132502364Y-65009800D02*
X125004600Y-65009800D01*
X143154400Y-65278000D02*
X132770564Y-65278000D01*
X132770564Y-65278000D02*
X132502364Y-65009800D01*
D19*
%TO.N,/SPI1_~{CS}*%
X124547400Y-57850000D02*
X120167400Y-62230000D01*
X166638200Y-57850000D02*
X124547400Y-57850000D01*
D18*
X120092600Y-62230000D02*
X120092600Y-58215400D01*
X120092600Y-58215400D02*
X120142000Y-58166000D01*
D19*
X168046400Y-59258200D02*
X166638200Y-57850000D01*
D18*
%TO.N,/SPI2_~{CS}*%
X126238000Y-59766200D02*
X126238000Y-59182000D01*
D19*
X122490000Y-62230000D02*
X122490000Y-62142600D01*
D18*
X126746000Y-60020200D02*
X126492000Y-60020200D01*
D19*
X172262800Y-60020200D02*
X173990000Y-58293000D01*
X122490000Y-62142600D02*
X124612400Y-60020200D01*
X173990000Y-58293000D02*
X231241600Y-58293000D01*
X126746000Y-60020200D02*
X172262800Y-60020200D01*
D18*
X126492000Y-60020200D02*
X126238000Y-59766200D01*
D19*
X231241600Y-58293000D02*
X233095800Y-60147200D01*
X124612400Y-60020200D02*
X126746000Y-60020200D01*
%TO.N,/SPI2_SCK_Y*%
X138758803Y-76198603D02*
X139012803Y-76198603D01*
X139012803Y-76198603D02*
X139968097Y-77153897D01*
D18*
X141564445Y-72816155D02*
X140349097Y-74031503D01*
D19*
X139968097Y-77153897D02*
X140349097Y-77153897D01*
D18*
X140349097Y-74031503D02*
X140349097Y-77153897D01*
%TO.N,/SPI2_SCK_Z*%
X138150600Y-77952600D02*
X140589000Y-77952600D01*
X134899400Y-75666600D02*
X135864600Y-75666600D01*
X135864600Y-75666600D02*
X138150600Y-77952600D01*
%TO.N,/SPI2_SDI_B*%
X141151045Y-63677800D02*
X143865600Y-63677800D01*
X145465800Y-65278000D02*
X145465800Y-66924200D01*
X175234600Y-64389000D02*
X175627102Y-63996498D01*
X181351048Y-63996498D02*
X183384547Y-66029997D01*
X174716232Y-69540390D02*
X174920623Y-69335999D01*
D17*
X213614000Y-66029997D02*
X243136000Y-66029997D01*
D18*
X140935200Y-63893645D02*
X141151045Y-63677800D01*
D17*
X183384547Y-66029997D02*
X213614000Y-66029997D01*
D18*
X148081990Y-69540390D02*
X174716232Y-69540390D01*
X175627102Y-63996498D02*
X181351048Y-63996498D01*
X143865600Y-63677800D02*
X145465800Y-65278000D01*
X145465800Y-66924200D02*
X148081990Y-69540390D01*
D17*
%TO.N,/SPI2_SDI_A*%
X148240112Y-62755400D02*
X141486000Y-62755400D01*
X141486000Y-62755400D02*
X140935200Y-62204600D01*
X214202900Y-65402997D02*
X213354288Y-65402997D01*
X242066891Y-65575997D02*
X242689891Y-64952997D01*
X178017109Y-62611000D02*
X177831112Y-62796997D01*
X177831112Y-62796997D02*
X173423824Y-62796997D01*
X213181288Y-65575997D02*
X183482797Y-65575997D01*
X173060027Y-62433200D02*
X148562312Y-62433200D01*
X173423824Y-62796997D02*
X173060027Y-62433200D01*
X214202900Y-65402997D02*
X214375900Y-65575997D01*
X183482797Y-65575997D02*
X180517800Y-62611000D01*
X148562312Y-62433200D02*
X148240112Y-62755400D01*
X180517800Y-62611000D02*
X178017109Y-62611000D01*
X242689891Y-64952997D02*
X244859000Y-64952997D01*
X244859000Y-64952997D02*
X244916000Y-65009997D01*
X213354288Y-65402997D02*
X213181288Y-65575997D01*
X214375900Y-65575997D02*
X242066891Y-65575997D01*
D19*
%TO.N,Net-(J3-Pad7)*%
X244017800Y-73482200D02*
X244916000Y-72584000D01*
X244916000Y-72584000D02*
X244916000Y-71129998D01*
X241681000Y-73482200D02*
X244017800Y-73482200D01*
X240614200Y-71299997D02*
X240614200Y-72415400D01*
X240614200Y-72415400D02*
X241681000Y-73482200D01*
D18*
%TO.N,/SPI2_SDO_Z*%
X227778700Y-59046500D02*
X228066600Y-59334400D01*
X180222203Y-62169997D02*
X181432200Y-60960000D01*
X140504855Y-63330145D02*
X155201945Y-63330145D01*
X182447190Y-59046500D02*
X227778700Y-59046500D01*
X155201945Y-63330145D02*
X155603590Y-62928500D01*
X155603590Y-62928500D02*
X171945300Y-62928500D01*
X181432200Y-60960000D02*
X181432200Y-60061490D01*
X246329200Y-65636797D02*
X244916000Y-67049997D01*
X228828600Y-62865000D02*
X244906800Y-62865000D01*
X139192000Y-63385797D02*
X140449203Y-63385797D01*
X229666800Y-59334400D02*
X229895400Y-59563000D01*
X228066600Y-62103000D02*
X228828600Y-62865000D01*
X228066600Y-59334400D02*
X229666800Y-59334400D01*
X177571400Y-62169997D02*
X180222203Y-62169997D01*
X181432200Y-60061490D02*
X182447190Y-59046500D01*
X244906800Y-62865000D02*
X246329200Y-64287400D01*
X246329200Y-64287400D02*
X246329200Y-65636797D01*
X171945300Y-62928500D02*
X172135800Y-63119000D01*
X228066600Y-59334400D02*
X228066600Y-62103000D01*
X140449203Y-63385797D02*
X140504855Y-63330145D01*
%TO.N,/SPI2_SDO_Y*%
X184186802Y-70109998D02*
X214655400Y-70109998D01*
X184186802Y-70109998D02*
X182364000Y-71932800D01*
X144872356Y-70577356D02*
X144145156Y-70577356D01*
X214655400Y-70109998D02*
X243136000Y-70109998D01*
X144145156Y-70577356D02*
X140665200Y-67097400D01*
X147729600Y-77905000D02*
X145694400Y-75869800D01*
X172539000Y-77905000D02*
X147729600Y-77905000D01*
X173304200Y-77139800D02*
X172539000Y-77905000D01*
X214655400Y-72415400D02*
X214655400Y-70109998D01*
%TO.N,/SPI1_SCK_Z*%
X153949400Y-75133200D02*
X155562127Y-76745927D01*
X155562127Y-76745927D02*
X159718428Y-76745927D01*
%TO.N,/SPI1_SCK_Y*%
X159677701Y-75946962D02*
X159602463Y-76022200D01*
X156105207Y-76022200D02*
X155515303Y-75432296D01*
X159602463Y-76022200D02*
X156105207Y-76022200D01*
D17*
%TO.N,/SPI1_SCK_B*%
X160324800Y-72593200D02*
X161218500Y-73486900D01*
X161218500Y-73486900D02*
X161218500Y-73615876D01*
D18*
%TO.N,/SPI2_SCK_1*%
X144551400Y-77622400D02*
X144551400Y-75006200D01*
X225905597Y-68069997D02*
X221564200Y-68069997D01*
X184734200Y-78028800D02*
X184077000Y-78686000D01*
X145615000Y-78686000D02*
X144551400Y-77622400D01*
D17*
X186690000Y-68783200D02*
X187403203Y-68069997D01*
X187403203Y-68069997D02*
X221564200Y-68069997D01*
X243136000Y-68069997D02*
X221564200Y-68069997D01*
D18*
X184077000Y-78686000D02*
X145615000Y-78686000D01*
X144551400Y-75006200D02*
X141732000Y-72186800D01*
X226923600Y-69088000D02*
X225905597Y-68069997D01*
X141732000Y-72186800D02*
X141732000Y-71450200D01*
%TO.N,/SPI2_SCK_2*%
X227050600Y-71475600D02*
X226949000Y-71374000D01*
D17*
X198568800Y-72720200D02*
X199436600Y-73588000D01*
X246837200Y-69850000D02*
X246837200Y-72059800D01*
X246077197Y-69089997D02*
X246837200Y-69850000D01*
D18*
X227050600Y-73588000D02*
X227050600Y-71475600D01*
D17*
X179501800Y-74701400D02*
X181483000Y-72720200D01*
X244916000Y-69089997D02*
X246077197Y-69089997D01*
X178257200Y-74701400D02*
X179501800Y-74701400D01*
X199436600Y-73588000D02*
X227050600Y-73588000D01*
X228515597Y-74362997D02*
X227740600Y-73588000D01*
X227740600Y-73588000D02*
X227050600Y-73588000D01*
X233934000Y-74362997D02*
X228515597Y-74362997D01*
X174663100Y-78295500D02*
X178257200Y-74701400D01*
X181483000Y-72720200D02*
X198568800Y-72720200D01*
X244534003Y-74362997D02*
X233934000Y-74362997D01*
X246837200Y-72059800D02*
X244534003Y-74362997D01*
X146075400Y-78122500D02*
X146248400Y-78295500D01*
X146248400Y-78295500D02*
X174663100Y-78295500D01*
%TD*%
M02*
