%TF.GenerationSoftware,KiCad,Pcbnew,8.0.1*%
%TF.CreationDate,2024-07-22T07:52:40-07:00*%
%TF.ProjectId,PMOD_differential_driver,504d4f44-5f64-4696-9666-6572656e7469,1*%
%TF.SameCoordinates,Original*%
%TF.FileFunction,Copper,L1,Top*%
%TF.FilePolarity,Positive*%
%FSLAX46Y46*%
G04 Gerber Fmt 4.6, Leading zero omitted, Abs format (unit mm)*
G04 Created by KiCad (PCBNEW 8.0.1) date 2024-07-22 07:52:40*
%MOMM*%
%LPD*%
G01*
G04 APERTURE LIST*
G04 Aperture macros list*
%AMRoundRect*
0 Rectangle with rounded corners*
0 $1 Rounding radius*
0 $2 $3 $4 $5 $6 $7 $8 $9 X,Y pos of 4 corners*
0 Add a 4 corners polygon primitive as box body*
4,1,4,$2,$3,$4,$5,$6,$7,$8,$9,$2,$3,0*
0 Add four circle primitives for the rounded corners*
1,1,$1+$1,$2,$3*
1,1,$1+$1,$4,$5*
1,1,$1+$1,$6,$7*
1,1,$1+$1,$8,$9*
0 Add four rect primitives between the rounded corners*
20,1,$1+$1,$2,$3,$4,$5,0*
20,1,$1+$1,$4,$5,$6,$7,0*
20,1,$1+$1,$6,$7,$8,$9,0*
20,1,$1+$1,$8,$9,$2,$3,0*%
G04 Aperture macros list end*
%ADD10C,0.500000*%
%TA.AperFunction,NonConductor*%
%ADD11C,0.500000*%
%TD*%
%TA.AperFunction,SMDPad,CuDef*%
%ADD12RoundRect,0.200000X0.200000X0.275000X-0.200000X0.275000X-0.200000X-0.275000X0.200000X-0.275000X0*%
%TD*%
%TA.AperFunction,ComponentPad*%
%ADD13R,0.850000X0.850000*%
%TD*%
%TA.AperFunction,SMDPad,CuDef*%
%ADD14R,1.500000X1.000000*%
%TD*%
%TA.AperFunction,SMDPad,CuDef*%
%ADD15RoundRect,0.200000X-0.200000X-0.275000X0.200000X-0.275000X0.200000X0.275000X-0.200000X0.275000X0*%
%TD*%
%TA.AperFunction,ComponentPad*%
%ADD16RoundRect,0.250000X0.500000X-0.500000X0.500000X0.500000X-0.500000X0.500000X-0.500000X-0.500000X0*%
%TD*%
%TA.AperFunction,ComponentPad*%
%ADD17C,1.500000*%
%TD*%
%TA.AperFunction,ComponentPad*%
%ADD18C,2.700000*%
%TD*%
%TA.AperFunction,SMDPad,CuDef*%
%ADD19RoundRect,0.200000X-0.275000X0.200000X-0.275000X-0.200000X0.275000X-0.200000X0.275000X0.200000X0*%
%TD*%
%TA.AperFunction,SMDPad,CuDef*%
%ADD20RoundRect,0.218750X0.218750X0.256250X-0.218750X0.256250X-0.218750X-0.256250X0.218750X-0.256250X0*%
%TD*%
%TA.AperFunction,SMDPad,CuDef*%
%ADD21RoundRect,0.150000X-0.825000X-0.150000X0.825000X-0.150000X0.825000X0.150000X-0.825000X0.150000X0*%
%TD*%
%TA.AperFunction,SMDPad,CuDef*%
%ADD22RoundRect,0.225000X-0.225000X-0.250000X0.225000X-0.250000X0.225000X0.250000X-0.225000X0.250000X0*%
%TD*%
%TA.AperFunction,ComponentPad*%
%ADD23R,1.700000X1.700000*%
%TD*%
%TA.AperFunction,ComponentPad*%
%ADD24O,1.700000X1.700000*%
%TD*%
%TA.AperFunction,ViaPad*%
%ADD25C,0.600000*%
%TD*%
%TA.AperFunction,Conductor*%
%ADD26C,0.254000*%
%TD*%
%TA.AperFunction,Conductor*%
%ADD27C,0.800000*%
%TD*%
%TA.AperFunction,Conductor*%
%ADD28C,1.000000*%
%TD*%
%TA.AperFunction,Conductor*%
%ADD29C,0.400000*%
%TD*%
%TA.AperFunction,Conductor*%
%ADD30C,0.200000*%
%TD*%
%TA.AperFunction,Conductor*%
%ADD31C,0.127000*%
%TD*%
G04 APERTURE END LIST*
D10*
D11*
X190527232Y-74536857D02*
X190527232Y-71536857D01*
X192241518Y-74536857D02*
X190955804Y-72822571D01*
X192241518Y-71536857D02*
X190527232Y-73251142D01*
X193384375Y-73679714D02*
X194812947Y-73679714D01*
X193098661Y-74536857D02*
X194098661Y-71536857D01*
X194098661Y-71536857D02*
X195098661Y-74536857D01*
X195955804Y-74394000D02*
X196384376Y-74536857D01*
X196384376Y-74536857D02*
X197098661Y-74536857D01*
X197098661Y-74536857D02*
X197384376Y-74394000D01*
X197384376Y-74394000D02*
X197527233Y-74251142D01*
X197527233Y-74251142D02*
X197670090Y-73965428D01*
X197670090Y-73965428D02*
X197670090Y-73679714D01*
X197670090Y-73679714D02*
X197527233Y-73394000D01*
X197527233Y-73394000D02*
X197384376Y-73251142D01*
X197384376Y-73251142D02*
X197098661Y-73108285D01*
X197098661Y-73108285D02*
X196527233Y-72965428D01*
X196527233Y-72965428D02*
X196241518Y-72822571D01*
X196241518Y-72822571D02*
X196098661Y-72679714D01*
X196098661Y-72679714D02*
X195955804Y-72394000D01*
X195955804Y-72394000D02*
X195955804Y-72108285D01*
X195955804Y-72108285D02*
X196098661Y-71822571D01*
X196098661Y-71822571D02*
X196241518Y-71679714D01*
X196241518Y-71679714D02*
X196527233Y-71536857D01*
X196527233Y-71536857D02*
X197241518Y-71536857D01*
X197241518Y-71536857D02*
X197670090Y-71679714D01*
X198955804Y-74536857D02*
X198955804Y-71536857D01*
X198955804Y-71536857D02*
X199955804Y-73679714D01*
X199955804Y-73679714D02*
X200955804Y-71536857D01*
X200955804Y-71536857D02*
X200955804Y-74536857D01*
D12*
%TO.P,R22,1*%
%TO.N,Net-(J2-Pad12)*%
X169608934Y-75689997D03*
%TO.P,R22,2*%
%TO.N,/SPI1_SCK_2*%
X167958934Y-75689997D03*
%TD*%
D13*
%TO.P,TP19,1,1*%
%TO.N,/SPI2_SDI*%
X128117600Y-62738000D03*
%TD*%
D14*
%TO.P,JP6,1,A*%
%TO.N,/SPI2_SCK_B*%
X142975400Y-74752200D03*
%TO.P,JP6,2,C*%
%TO.N,/SPI2_SCK_2*%
X142975400Y-76052200D03*
%TO.P,JP6,3,B*%
%TO.N,/SPI2_SCK_Z*%
X142975400Y-77352200D03*
%TD*%
D13*
%TO.P,TP13,1,1*%
%TO.N,/SPI1_~{CS}*%
X120142000Y-58166000D03*
%TD*%
D14*
%TO.P,JP3,1,A*%
%TO.N,/SPI1_SCK_A*%
X163088400Y-69134200D03*
%TO.P,JP3,2,C*%
%TO.N,/SPI1_SCK_1*%
X163088400Y-70434200D03*
%TO.P,JP3,3,B*%
%TO.N,/SPI1_SCK_Y*%
X163088400Y-71734200D03*
%TD*%
D12*
%TO.P,R7,1*%
%TO.N,GND*%
X159087400Y-73449200D03*
%TO.P,R7,2*%
%TO.N,/SPI1_SCK_Z*%
X157437400Y-73449200D03*
%TD*%
D13*
%TO.P,TP15,1,1*%
%TO.N,/SPI1_SDI*%
X143256000Y-61468000D03*
%TD*%
%TO.P,TP10,1,1*%
%TO.N,/SPI2_SCK_1*%
X226923600Y-69088000D03*
%TD*%
%TO.P,TP26,1,1*%
%TO.N,GND*%
X208076800Y-59791600D03*
%TD*%
D12*
%TO.P,R10,1*%
%TO.N,GND*%
X139217200Y-65227200D03*
%TO.P,R10,2*%
%TO.N,/SPI2_SDO_Z*%
X137567200Y-65227200D03*
%TD*%
D13*
%TO.P,TP17,1,1*%
%TO.N,/SPI2_~{CS}*%
X126238000Y-59182000D03*
%TD*%
%TO.P,TP25,1,1*%
%TO.N,GND*%
X214553800Y-76784200D03*
%TD*%
D15*
%TO.P,R12,1*%
%TO.N,GND*%
X233045000Y-72331599D03*
%TO.P,R12,2*%
%TO.N,Net-(J3-Pad8)*%
X234695000Y-72331599D03*
%TD*%
D13*
%TO.P,TP1,1,1*%
%TO.N,/SPI1_SDI_A*%
X166497000Y-61188600D03*
%TD*%
D16*
%TO.P,J2,1*%
%TO.N,/SPI1_SDI_A*%
X180469933Y-65009998D03*
D17*
%TO.P,J2,2*%
%TO.N,/SPI1_SDI_B*%
X178689933Y-66029998D03*
%TO.P,J2,3*%
%TO.N,/SPI1_SDO_Z*%
X180469933Y-67049998D03*
%TO.P,J2,4*%
%TO.N,/SPI1_SCK_1*%
X178689933Y-68069998D03*
%TO.P,J2,5*%
%TO.N,/SPI1_SCK_2*%
X180469933Y-69089998D03*
%TO.P,J2,6*%
%TO.N,/SPI1_SDO_Y*%
X178689933Y-70109998D03*
%TO.P,J2,7*%
%TO.N,Net-(J2-Pad7)*%
X180469933Y-71129998D03*
%TO.P,J2,8*%
%TO.N,Net-(J2-Pad8)*%
X178689933Y-72149998D03*
%TO.P,J2,9*%
%TO.N,Net-(J2-Pad9)*%
X173869933Y-61719998D03*
%TO.P,J2,10*%
%TO.N,+3V3*%
X173869933Y-64009998D03*
%TO.P,J2,11*%
%TO.N,GND*%
X173869933Y-73149998D03*
%TO.P,J2,12*%
%TO.N,Net-(J2-Pad12)*%
X173869933Y-75439998D03*
D18*
%TO.P,J2,SH*%
%TO.N,GND*%
X179449933Y-60449998D03*
X179449933Y-76709998D03*
%TD*%
D13*
%TO.P,TP4,1,1*%
%TO.N,/SPI1_SCK_1*%
X166598600Y-68732400D03*
%TD*%
D19*
%TO.P,R19,1*%
%TO.N,/SPI1_SCK_A*%
X157500400Y-70338200D03*
%TO.P,R19,2*%
%TO.N,/SPI1_SCK_B*%
X157500400Y-71988200D03*
%TD*%
D20*
%TO.P,D1,1,K*%
%TO.N,Net-(D1-K)*%
X120908950Y-77622400D03*
%TO.P,D1,2,A*%
%TO.N,+3V3*%
X119333950Y-77622400D03*
%TD*%
D21*
%TO.P,U3,1,VCC*%
%TO.N,+3V3*%
X130594400Y-62610800D03*
%TO.P,U3,2,RO*%
%TO.N,/SPI2_SDI*%
X130594400Y-63880800D03*
%TO.P,U3,3,DI*%
%TO.N,/SPI2_SDO*%
X130594400Y-65150800D03*
%TO.P,U3,4,GND*%
%TO.N,GND*%
X130594400Y-66420800D03*
%TO.P,U3,5,Y*%
%TO.N,/SPI2_SDO_Y*%
X135544400Y-66420800D03*
%TO.P,U3,6,Z*%
%TO.N,/SPI2_SDO_Z*%
X135544400Y-65150800D03*
%TO.P,U3,7,B*%
%TO.N,/SPI2_SDI_B*%
X135544400Y-63880800D03*
%TO.P,U3,8,A*%
%TO.N,/SPI2_SDI_A*%
X135544400Y-62610800D03*
%TD*%
D22*
%TO.P,C2,1*%
%TO.N,+3V3*%
X151104000Y-69270400D03*
%TO.P,C2,2*%
%TO.N,GND*%
X152654000Y-69270400D03*
%TD*%
D13*
%TO.P,TP3,1,1*%
%TO.N,/SPI1_SDO_Z*%
X169392600Y-68757800D03*
%TD*%
%TO.P,TP18,1,1*%
%TO.N,/SPI2_SCK*%
X125653800Y-62738000D03*
%TD*%
%TO.P,TP24,1,1*%
%TO.N,GND*%
X202971400Y-76784200D03*
%TD*%
%TO.P,TP5,1,1*%
%TO.N,/SPI1_SCK_2*%
X197967600Y-59791600D03*
%TD*%
D14*
%TO.P,JP5,1,A*%
%TO.N,/SPI2_SCK_A*%
X142975400Y-70150200D03*
%TO.P,JP5,2,C*%
%TO.N,/SPI2_SCK_1*%
X142975400Y-71450200D03*
%TO.P,JP5,3,B*%
%TO.N,/SPI2_SCK_Y*%
X142975400Y-72750200D03*
%TD*%
D22*
%TO.P,C1,1*%
%TO.N,+3V3*%
X146455800Y-61137800D03*
%TO.P,C1,2*%
%TO.N,GND*%
X148005800Y-61137800D03*
%TD*%
D19*
%TO.P,R3,1*%
%TO.N,/SPI1_SDI_A*%
X153162000Y-62527200D03*
%TO.P,R3,2*%
%TO.N,/SPI1_SDI_B*%
X153162000Y-64177200D03*
%TD*%
D15*
%TO.P,R13,1*%
%TO.N,/SPI2_SCK_Y*%
X138581200Y-75163200D03*
%TO.P,R13,2*%
%TO.N,+3V3*%
X140231200Y-75163200D03*
%TD*%
%TO.P,R9,1*%
%TO.N,/SPI2_SDO_Y*%
X137567200Y-66751200D03*
%TO.P,R9,2*%
%TO.N,+3V3*%
X139217200Y-66751200D03*
%TD*%
D21*
%TO.P,U1,1,VCC*%
%TO.N,+3V3*%
X146115000Y-62717200D03*
%TO.P,U1,2,RO*%
%TO.N,/SPI1_SDI*%
X146115000Y-63987200D03*
%TO.P,U1,3,DI*%
%TO.N,/SPI1_SDO*%
X146115000Y-65257200D03*
%TO.P,U1,4,GND*%
%TO.N,GND*%
X146115000Y-66527200D03*
%TO.P,U1,5,Y*%
%TO.N,/SPI1_SDO_Y*%
X151065000Y-66527200D03*
%TO.P,U1,6,Z*%
%TO.N,/SPI1_SDO_Z*%
X151065000Y-65257200D03*
%TO.P,U1,7,B*%
%TO.N,/SPI1_SDI_B*%
X151065000Y-63987200D03*
%TO.P,U1,8,A*%
%TO.N,/SPI1_SDI_A*%
X151065000Y-62717200D03*
%TD*%
D13*
%TO.P,TP12,1,1*%
%TO.N,/SPI2_SDO_Y*%
X214655400Y-72415400D03*
%TD*%
%TO.P,TP9,1,1*%
%TO.N,/SPI2_SDO_Z*%
X229895400Y-59563000D03*
%TD*%
D23*
%TO.P,J1,1,Pin_1*%
%TO.N,+3V3*%
X122632600Y-74930000D03*
D24*
%TO.P,J1,2,Pin_2*%
%TO.N,GND*%
X122632600Y-72390000D03*
%TO.P,J1,3,Pin_3*%
%TO.N,/SPI2_SDO*%
X122632600Y-69850000D03*
%TO.P,J1,4,Pin_4*%
%TO.N,/SPI2_SDI*%
X122632600Y-67310000D03*
%TO.P,J1,5,Pin_5*%
%TO.N,/SPI2_SCK*%
X122632600Y-64770000D03*
%TO.P,J1,6,Pin_6*%
%TO.N,/SPI2_~{CS}*%
X122632600Y-62230000D03*
%TO.P,J1,7,Pin_7*%
%TO.N,+3V3*%
X120092600Y-74930000D03*
%TO.P,J1,8,Pin_8*%
%TO.N,GND*%
X120092600Y-72390000D03*
%TO.P,J1,9,Pin_9*%
%TO.N,/SPI1_SDO*%
X120092600Y-69850000D03*
%TO.P,J1,10,Pin_10*%
%TO.N,/SPI1_SDI*%
X120092600Y-67310000D03*
%TO.P,J1,11,Pin_11*%
%TO.N,/SPI1_SCK*%
X120092600Y-64770000D03*
%TO.P,J1,12,Pin_12*%
%TO.N,/SPI1_~{CS}*%
X120092600Y-62230000D03*
%TD*%
D13*
%TO.P,TP2,1,1*%
%TO.N,/SPI1_SDI_B*%
X169443400Y-66065400D03*
%TD*%
%TO.P,TP21,1,1*%
%TO.N,GND*%
X137693400Y-58928000D03*
%TD*%
%TO.P,TP7,1,1*%
%TO.N,/SPI2_SDI_A*%
X216154000Y-60731400D03*
%TD*%
D14*
%TO.P,JP2,1,A*%
%TO.N,Net-(JP2-A)*%
X128940400Y-71704200D03*
%TO.P,JP2,2,C*%
%TO.N,/SPI2_SCK*%
X128940400Y-73004200D03*
%TO.P,JP2,3,B*%
%TO.N,Net-(JP2-B)*%
X128940400Y-74304200D03*
%TD*%
%TO.P,JP1,1,A*%
%TO.N,Net-(JP1-A)*%
X147848400Y-71450200D03*
%TO.P,JP1,2,C*%
%TO.N,/SPI1_SCK*%
X147848400Y-72750200D03*
%TO.P,JP1,3,B*%
%TO.N,Net-(JP1-B)*%
X147848400Y-74050200D03*
%TD*%
D12*
%TO.P,R14,1*%
%TO.N,GND*%
X140231200Y-73639200D03*
%TO.P,R14,2*%
%TO.N,/SPI2_SCK_Z*%
X138581200Y-73639200D03*
%TD*%
D15*
%TO.P,R2,1*%
%TO.N,GND*%
X168021934Y-73911997D03*
%TO.P,R2,2*%
%TO.N,Net-(J2-Pad8)*%
X169671934Y-73911997D03*
%TD*%
D12*
%TO.P,R11,1*%
%TO.N,Net-(J3-Pad7)*%
X234695000Y-69214999D03*
%TO.P,R11,2*%
%TO.N,/SPI2_~{CS}*%
X233045000Y-69214999D03*
%TD*%
D13*
%TO.P,TP14,1,1*%
%TO.N,/SPI1_SCK*%
X128803400Y-78003400D03*
%TD*%
D14*
%TO.P,JP4,1,A*%
%TO.N,/SPI1_SCK_B*%
X163088400Y-73990200D03*
%TO.P,JP4,2,C*%
%TO.N,/SPI1_SCK_2*%
X163088400Y-75290200D03*
%TO.P,JP4,3,B*%
%TO.N,/SPI1_SCK_Z*%
X163088400Y-76590200D03*
%TD*%
D19*
%TO.P,R8,1*%
%TO.N,/SPI2_SDI_A*%
X137630200Y-62116200D03*
%TO.P,R8,2*%
%TO.N,/SPI2_SDI_B*%
X137630200Y-63766200D03*
%TD*%
D13*
%TO.P,TP6,1,1*%
%TO.N,/SPI1_SDO_Y*%
X159435800Y-68707000D03*
%TD*%
D22*
%TO.P,C3,1*%
%TO.N,+3V3*%
X130759200Y-61036200D03*
%TO.P,C3,2*%
%TO.N,GND*%
X132309200Y-61036200D03*
%TD*%
D12*
%TO.P,R4,1*%
%TO.N,GND*%
X154749000Y-65638200D03*
%TO.P,R4,2*%
%TO.N,/SPI1_SDO_Z*%
X153099000Y-65638200D03*
%TD*%
D22*
%TO.P,C4,1*%
%TO.N,+3V3*%
X132054000Y-69372000D03*
%TO.P,C4,2*%
%TO.N,GND*%
X133604000Y-69372000D03*
%TD*%
D13*
%TO.P,TP23,1,1*%
%TO.N,GND*%
X169951400Y-58191400D03*
%TD*%
D21*
%TO.P,U4,1,VCC*%
%TO.N,+3V3*%
X131672400Y-70972200D03*
%TO.P,U4,2,RO*%
%TO.N,Net-(JP2-A)*%
X131672400Y-72242200D03*
%TO.P,U4,3,DI*%
%TO.N,Net-(JP2-B)*%
X131672400Y-73512200D03*
%TO.P,U4,4,GND*%
%TO.N,GND*%
X131672400Y-74782200D03*
%TO.P,U4,5,Y*%
%TO.N,/SPI2_SCK_Y*%
X136622400Y-74782200D03*
%TO.P,U4,6,Z*%
%TO.N,/SPI2_SCK_Z*%
X136622400Y-73512200D03*
%TO.P,U4,7,B*%
%TO.N,/SPI2_SCK_B*%
X136622400Y-72242200D03*
%TO.P,U4,8,A*%
%TO.N,/SPI2_SCK_A*%
X136622400Y-70972200D03*
%TD*%
D13*
%TO.P,TP8,1,1*%
%TO.N,/SPI2_SDI_B*%
X213639400Y-60731400D03*
%TD*%
%TO.P,TP16,1,1*%
%TO.N,/SPI1_SDO*%
X125933200Y-68275200D03*
%TD*%
D21*
%TO.P,U2,1,VCC*%
%TO.N,+3V3*%
X150453400Y-70845200D03*
%TO.P,U2,2,RO*%
%TO.N,Net-(JP1-A)*%
X150453400Y-72115200D03*
%TO.P,U2,3,DI*%
%TO.N,Net-(JP1-B)*%
X150453400Y-73385200D03*
%TO.P,U2,4,GND*%
%TO.N,GND*%
X150453400Y-74655200D03*
%TO.P,U2,5,Y*%
%TO.N,/SPI1_SCK_Y*%
X155403400Y-74655200D03*
%TO.P,U2,6,Z*%
%TO.N,/SPI1_SCK_Z*%
X155403400Y-73385200D03*
%TO.P,U2,7,B*%
%TO.N,/SPI1_SCK_B*%
X155403400Y-72115200D03*
%TO.P,U2,8,A*%
%TO.N,/SPI1_SCK_A*%
X155403400Y-70845200D03*
%TD*%
D15*
%TO.P,R21,1*%
%TO.N,/SPI1_~{CS}*%
X168440600Y-60756800D03*
%TO.P,R21,2*%
%TO.N,Net-(J2-Pad9)*%
X170090600Y-60756800D03*
%TD*%
%TO.P,R6,1*%
%TO.N,/SPI1_SCK_Y*%
X157437400Y-74973200D03*
%TO.P,R6,2*%
%TO.N,+3V3*%
X159087400Y-74973200D03*
%TD*%
%TO.P,R24,1*%
%TO.N,/SPI2_~{CS}*%
X233045000Y-61595000D03*
%TO.P,R24,2*%
%TO.N,Net-(J3-Pad9)*%
X234695000Y-61595000D03*
%TD*%
D12*
%TO.P,R23,1*%
%TO.N,Net-(J3-Pad12)*%
X234695000Y-75310999D03*
%TO.P,R23,2*%
%TO.N,/SPI2_SCK_2*%
X233045000Y-75310999D03*
%TD*%
D19*
%TO.P,R20,1*%
%TO.N,/SPI2_SCK_A*%
X138657400Y-70553600D03*
%TO.P,R20,2*%
%TO.N,/SPI2_SCK_B*%
X138657400Y-72203600D03*
%TD*%
D15*
%TO.P,R5,1*%
%TO.N,/SPI1_SDO_Y*%
X153099000Y-67162200D03*
%TO.P,R5,2*%
%TO.N,+3V3*%
X154749000Y-67162200D03*
%TD*%
D16*
%TO.P,J3,1*%
%TO.N,/SPI2_SDI_A*%
X244916000Y-65009997D03*
D17*
%TO.P,J3,2*%
%TO.N,/SPI2_SDI_B*%
X243136000Y-66029997D03*
%TO.P,J3,3*%
%TO.N,/SPI2_SDO_Z*%
X244916000Y-67049997D03*
%TO.P,J3,4*%
%TO.N,/SPI2_SCK_1*%
X243136000Y-68069997D03*
%TO.P,J3,5*%
%TO.N,/SPI2_SCK_2*%
X244916000Y-69089997D03*
%TO.P,J3,6*%
%TO.N,/SPI2_SDO_Y*%
X243136000Y-70109998D03*
%TO.P,J3,7*%
%TO.N,Net-(J3-Pad7)*%
X244916000Y-71129998D03*
%TO.P,J3,8*%
%TO.N,Net-(J3-Pad8)*%
X243136000Y-72149996D03*
%TO.P,J3,9*%
%TO.N,Net-(J3-Pad9)*%
X238316000Y-61719997D03*
%TO.P,J3,10*%
%TO.N,+3V3*%
X238316000Y-64009997D03*
%TO.P,J3,11*%
%TO.N,GND*%
X238316000Y-73149997D03*
%TO.P,J3,12*%
%TO.N,Net-(J3-Pad12)*%
X238316000Y-75439997D03*
D18*
%TO.P,J3,SH*%
%TO.N,GND*%
X243896000Y-60449997D03*
X243896000Y-76709997D03*
%TD*%
D13*
%TO.P,TP22,1,1*%
%TO.N,GND*%
X134188200Y-77978000D03*
%TD*%
D12*
%TO.P,R15,1*%
%TO.N,GND*%
X124073050Y-77622400D03*
%TO.P,R15,2*%
%TO.N,Net-(D1-K)*%
X122423050Y-77622400D03*
%TD*%
%TO.P,R1,1*%
%TO.N,Net-(J2-Pad7)*%
X169608934Y-71625996D03*
%TO.P,R1,2*%
%TO.N,/SPI1_~{CS}*%
X167958934Y-71625996D03*
%TD*%
D13*
%TO.P,TP20,1,1*%
%TO.N,/SPI2_SDO*%
X130149600Y-68300600D03*
%TD*%
%TO.P,TP11,1,1*%
%TO.N,/SPI2_SCK_2*%
X226949000Y-71374000D03*
%TD*%
D25*
%TO.N,/SPI1_SCK*%
X145897600Y-72745600D03*
%TO.N,+3V3*%
X161163000Y-64262000D03*
X179095400Y-63238000D03*
X184912000Y-64473200D03*
%TO.N,/SPI2_SCK*%
X126873000Y-72593200D03*
%TO.N,Net-(J2-Pad7)*%
X170662600Y-71653400D03*
%TO.N,/SPI1_SDO_Z*%
X153924000Y-64998600D03*
X171094400Y-67049998D03*
%TO.N,/SPI1_SCK_1*%
X176199800Y-70358000D03*
X164592000Y-70408800D03*
X176326800Y-68249800D03*
%TO.N,Net-(J2-Pad8)*%
X170764200Y-73888600D03*
X176664465Y-74175465D03*
%TO.N,Net-(J2-Pad9)*%
X170637200Y-61722000D03*
%TO.N,/SPI1_SDI_A*%
X158164656Y-63755144D03*
%TO.N,GND*%
X210500000Y-77724000D03*
X133172200Y-74625200D03*
X157599344Y-64321207D03*
X234451261Y-73735997D03*
X160919194Y-72058100D03*
X151942800Y-74396600D03*
X159987400Y-75209400D03*
X119075200Y-66065400D03*
X233934000Y-78232000D03*
X155903006Y-65380367D03*
X151447734Y-67514699D03*
X123977400Y-63474600D03*
X146474508Y-75692503D03*
X122174000Y-58674000D03*
X205500000Y-77724000D03*
X147574000Y-66217800D03*
X200500000Y-77724000D03*
X230632000Y-67056000D03*
X132207000Y-62026800D03*
X144642510Y-66354099D03*
X182364000Y-71132797D03*
X140952211Y-74415362D03*
X119049800Y-68656200D03*
X152120600Y-70180200D03*
X143052800Y-64363600D03*
X176771397Y-62169997D03*
X123698000Y-71094600D03*
X145639306Y-70349779D03*
X141144907Y-75389064D03*
X132054600Y-66090800D03*
X133426200Y-70383400D03*
X146174906Y-77324844D03*
X154254200Y-59182000D03*
X190500000Y-77724000D03*
X119100600Y-71145400D03*
X154832907Y-64470921D03*
X159020736Y-72613168D03*
X159994600Y-73482200D03*
X156550348Y-63957624D03*
X176000131Y-64621306D03*
X147980400Y-62128400D03*
X248666000Y-65866000D03*
X171086427Y-61060034D03*
X141092966Y-72169849D03*
X141464193Y-67057222D03*
X150622000Y-59182000D03*
X145600487Y-72002816D03*
X195500000Y-77724000D03*
X210500000Y-60706000D03*
X119151400Y-63550800D03*
X175590200Y-69773800D03*
X124079000Y-69164200D03*
X176963386Y-70736999D03*
X228934000Y-78232000D03*
X160470163Y-77153700D03*
X248666000Y-70866000D03*
X168021000Y-72974200D03*
X124714000Y-59182000D03*
X161636685Y-72933875D03*
X124071879Y-64778108D03*
X176914873Y-68876800D03*
X137997497Y-76443000D03*
X233045000Y-73304400D03*
X200500000Y-60706000D03*
X225632000Y-67056000D03*
X185515901Y-78198942D03*
X167108603Y-73911997D03*
X118110000Y-59182000D03*
X140122169Y-63949297D03*
X164899693Y-71147264D03*
X172532025Y-76930636D03*
X140023313Y-78518287D03*
X140921844Y-70994831D03*
X139192000Y-64185800D03*
X171444854Y-63522234D03*
X127352676Y-66116836D03*
X195500000Y-60706000D03*
X164465000Y-59309000D03*
X205500000Y-60706000D03*
X128778000Y-59182000D03*
X140935200Y-61404597D03*
X140914430Y-76584830D03*
X160653740Y-63563721D03*
X124675900Y-76746100D03*
X126695200Y-73406000D03*
X187501500Y-68858412D03*
X190500000Y-60706000D03*
X127584200Y-72212200D03*
X156327349Y-75447432D03*
%TO.N,/SPI1_SDO_Y*%
X152196800Y-67233800D03*
%TO.N,/SPI1_SDI_B*%
X155918982Y-64448929D03*
%TO.N,/SPI1_SDO*%
X126585093Y-65891400D03*
X143992600Y-65887600D03*
%TO.N,/SPI1_SDI*%
X124866400Y-64871600D03*
X143840200Y-64592200D03*
%TO.N,/SPI1_~{CS}*%
X168046400Y-59258200D03*
%TO.N,/SPI2_~{CS}*%
X233095800Y-60147200D03*
%TO.N,/SPI2_SCK_Y*%
X141564445Y-72816155D03*
X138758803Y-76198603D03*
%TO.N,/SPI2_SCK_Z*%
X134899400Y-75666600D03*
X140589000Y-77952600D03*
%TO.N,/SPI2_SDI_B*%
X174920623Y-69335999D03*
X140935200Y-63893645D03*
X175234600Y-64389000D03*
X213614000Y-66029997D03*
%TO.N,/SPI2_SDI_A*%
X214202900Y-65402997D03*
X140935200Y-62204600D03*
%TO.N,Net-(J3-Pad7)*%
X240614200Y-71299997D03*
%TO.N,/SPI2_SDO_Z*%
X177571400Y-62169997D03*
X139192000Y-63385797D03*
X172135800Y-63119000D03*
%TO.N,/SPI2_SDO_Y*%
X182364000Y-71932800D03*
X144872356Y-70577356D03*
X173304200Y-77139800D03*
X145694400Y-75869800D03*
X140665200Y-67097400D03*
%TO.N,/SPI1_SCK_Z*%
X159718428Y-76745927D03*
X153949400Y-75133200D03*
%TO.N,/SPI1_SCK_Y*%
X159677701Y-75946962D03*
X155515303Y-75432296D03*
%TO.N,/SPI1_SCK_B*%
X160324800Y-72593200D03*
X161218500Y-73615876D03*
%TO.N,/SPI2_SCK_1*%
X186690000Y-68783200D03*
X141732000Y-71450200D03*
X184734200Y-78028800D03*
%TO.N,/SPI2_SCK_2*%
X146075400Y-78122500D03*
X233934000Y-74362997D03*
%TD*%
D26*
%TO.N,/SPI1_SCK*%
X147843800Y-72745600D02*
X147848400Y-72750200D01*
X145897600Y-72745600D02*
X147843800Y-72745600D01*
D27*
%TO.N,+3V3*%
X126212600Y-76936600D02*
X124206000Y-74930000D01*
D28*
X145292600Y-69270400D02*
X149682200Y-69270400D01*
X143522700Y-67500500D02*
X142671800Y-66649600D01*
D29*
X179095400Y-63238000D02*
X180814600Y-63238000D01*
D28*
X117932200Y-61214000D02*
X118466200Y-60680000D01*
D29*
X160702800Y-64262000D02*
X157802600Y-67162200D01*
X180814600Y-63238000D02*
X182049800Y-64473200D01*
D28*
X119950000Y-74930000D02*
X122490000Y-74930000D01*
D26*
X156066205Y-76073000D02*
X146980723Y-76073000D01*
D28*
X125526800Y-72466200D02*
X125526800Y-73609200D01*
X132054000Y-69372000D02*
X132054000Y-69132618D01*
X130359400Y-59861200D02*
X134035800Y-59861200D01*
X142925800Y-68097400D02*
X143522700Y-67500500D01*
D29*
X154749000Y-67162200D02*
X153874000Y-68037200D01*
D28*
X119456200Y-74930000D02*
X117932200Y-73406000D01*
D29*
X139217200Y-66751200D02*
X139217200Y-67741600D01*
D26*
X146980723Y-76073000D02*
X146556923Y-76496800D01*
X158748568Y-76074432D02*
X156067637Y-76074432D01*
D28*
X130403000Y-60680000D02*
X130759200Y-61036200D01*
D26*
X145102200Y-76496800D02*
X144229200Y-75623800D01*
D28*
X129768600Y-60680000D02*
X129768600Y-60452000D01*
X142468600Y-65193614D02*
X142468600Y-66446400D01*
X117932200Y-73406000D02*
X117932200Y-61214000D01*
X142316200Y-59861200D02*
X142052800Y-60124600D01*
D29*
X119333950Y-75688650D02*
X120092600Y-74930000D01*
D27*
X136372600Y-77343000D02*
X135966200Y-76936600D01*
D28*
X132054000Y-69132618D02*
X133089218Y-68097400D01*
X134035800Y-68097400D02*
X134035800Y-67462400D01*
X149390000Y-60732618D02*
X149390000Y-68978200D01*
X129768600Y-60452000D02*
X130359400Y-59861200D01*
X134035800Y-67462400D02*
X133869400Y-67296000D01*
X127533400Y-70459600D02*
X125526800Y-72466200D01*
D30*
X131159800Y-70459600D02*
X131672400Y-70972200D01*
D26*
X159087400Y-74973200D02*
X159087400Y-75735600D01*
D29*
X119333950Y-77622400D02*
X119333950Y-75688650D01*
D28*
X130966400Y-70459600D02*
X127533400Y-70459600D01*
D27*
X135966200Y-76936600D02*
X126212600Y-76936600D01*
D29*
X157802600Y-67162200D02*
X154749000Y-67162200D01*
D28*
X125526800Y-73609200D02*
X124206000Y-74930000D01*
D30*
X130966400Y-70459600D02*
X131159800Y-70459600D01*
D29*
X161163000Y-64262000D02*
X160702800Y-64262000D01*
D28*
X119950000Y-74930000D02*
X119456200Y-74930000D01*
D26*
X159087400Y-75735600D02*
X158748568Y-76074432D01*
D29*
X153874000Y-68037200D02*
X152337200Y-68037200D01*
X182049800Y-64473200D02*
X184912000Y-64473200D01*
D28*
X142316200Y-59861200D02*
X145179200Y-59861200D01*
X142052800Y-64777814D02*
X142468600Y-65193614D01*
X133869400Y-67296000D02*
X133869400Y-60027600D01*
X118466200Y-60680000D02*
X129768600Y-60680000D01*
X134035800Y-68097400D02*
X142925800Y-68097400D01*
X124206000Y-74930000D02*
X122490000Y-74930000D01*
X145179200Y-59861200D02*
X148518582Y-59861200D01*
X149390000Y-68978200D02*
X149682200Y-69270400D01*
X134550400Y-60375800D02*
X141801600Y-60375800D01*
X129768600Y-60680000D02*
X130403000Y-60680000D01*
D26*
X144229200Y-70333800D02*
X145292600Y-69270400D01*
D28*
X142468600Y-66446400D02*
X142671800Y-66649600D01*
X145179200Y-59861200D02*
X146455800Y-61137800D01*
X134035800Y-59861200D02*
X134550400Y-60375800D01*
D26*
X144229200Y-75623800D02*
X144229200Y-70333800D01*
X156067637Y-76074432D02*
X156066205Y-76073000D01*
D28*
X132054000Y-69372000D02*
X130966400Y-70459600D01*
D27*
X140231200Y-75163200D02*
X140231200Y-75999000D01*
D26*
X146556923Y-76496800D02*
X145102200Y-76496800D01*
D29*
X152337200Y-68037200D02*
X151104000Y-69270400D01*
D27*
X140231200Y-75999000D02*
X138887200Y-77343000D01*
X138887200Y-77343000D02*
X136372600Y-77343000D01*
D28*
X142671800Y-66649600D02*
X145292600Y-69270400D01*
X149682200Y-69270400D02*
X151104000Y-69270400D01*
X142052800Y-60124600D02*
X142052800Y-64777814D01*
D29*
X139217200Y-67741600D02*
X139217400Y-67741800D01*
D28*
X133089218Y-68097400D02*
X134035800Y-68097400D01*
X141801600Y-60375800D02*
X142316200Y-59861200D01*
X148518582Y-59861200D02*
X149390000Y-60732618D01*
X133869400Y-60027600D02*
X134035800Y-59861200D01*
D29*
%TO.N,/SPI2_SCK*%
X127284000Y-73004200D02*
X128940400Y-73004200D01*
D30*
X123224492Y-64178108D02*
X124188292Y-64178108D01*
D29*
X126873000Y-72593200D02*
X127284000Y-73004200D01*
D30*
X124188292Y-64178108D02*
X125374400Y-62992000D01*
X122632600Y-64770000D02*
X123224492Y-64178108D01*
D26*
%TO.N,Net-(J2-Pad7)*%
X169608934Y-71625996D02*
X170635196Y-71625996D01*
X170635196Y-71625996D02*
X170662600Y-71653400D01*
D31*
%TO.N,/SPI1_SDO_Z*%
X171094400Y-67056000D02*
X169392600Y-68757800D01*
D29*
X151065000Y-65257200D02*
X152718000Y-65257200D01*
D31*
X153284400Y-65638200D02*
X153099000Y-65638200D01*
X171094400Y-67049998D02*
X171094400Y-67056000D01*
D29*
X152718000Y-65257200D02*
X153099000Y-65638200D01*
X153924000Y-64998600D02*
X153284400Y-65638200D01*
D26*
%TO.N,/SPI1_SCK_1*%
X176199800Y-70358000D02*
X176250600Y-70307200D01*
X176250600Y-70307200D02*
X176250600Y-68326000D01*
D31*
X164592000Y-70408800D02*
X165608000Y-70408800D01*
D26*
X176250600Y-68326000D02*
X176326800Y-68249800D01*
D31*
X165608000Y-70408800D02*
X166598600Y-69418200D01*
D26*
X164566600Y-70434200D02*
X164592000Y-70408800D01*
X163088400Y-70434200D02*
X164566600Y-70434200D01*
D31*
X166598600Y-69418200D02*
X166598600Y-68732400D01*
D26*
%TO.N,Net-(J2-Pad8)*%
X170740803Y-73911997D02*
X170764200Y-73888600D01*
X169671934Y-73911997D02*
X170740803Y-73911997D01*
X176664465Y-74175465D02*
X178689933Y-72149997D01*
%TO.N,Net-(J2-Pad9)*%
X170090600Y-60756800D02*
X170090600Y-61175400D01*
X170090600Y-61175400D02*
X170637200Y-61722000D01*
D29*
%TO.N,/SPI1_SDI_A*%
X151065000Y-62717200D02*
X152972000Y-62717200D01*
D26*
X158164656Y-63755144D02*
X156936712Y-62527200D01*
D31*
X158164656Y-63755144D02*
X159155256Y-63755144D01*
D26*
X156936712Y-62527200D02*
X153162000Y-62527200D01*
D31*
X159155256Y-63755144D02*
X161721800Y-61188600D01*
D29*
X152972000Y-62717200D02*
X153162000Y-62527200D01*
D31*
X161721800Y-61188600D02*
X166497000Y-61188600D01*
D29*
%TO.N,GND*%
X124675900Y-76746100D02*
X124073050Y-77348950D01*
X168021934Y-73911997D02*
X168021934Y-72975134D01*
X168021934Y-72975134D02*
X168021000Y-72974200D01*
X140231200Y-73694351D02*
X140231200Y-73639200D01*
X159087400Y-72679832D02*
X159020736Y-72613168D01*
X159087400Y-73449200D02*
X159087400Y-72679832D01*
X139217200Y-64211000D02*
X139192000Y-64185800D01*
X233045000Y-72331599D02*
X233045000Y-73304400D01*
X139217200Y-65227200D02*
X139217200Y-64211000D01*
X167108603Y-73911997D02*
X168021934Y-73911997D01*
X124073050Y-77348950D02*
X124073050Y-77622400D01*
X154749000Y-64554828D02*
X154749000Y-65638200D01*
X155645173Y-65638200D02*
X154749000Y-65638200D01*
X155903006Y-65380367D02*
X155645173Y-65638200D01*
X159087400Y-73449200D02*
X159961600Y-73449200D01*
X154832907Y-64470921D02*
X154749000Y-64554828D01*
X140952211Y-74415362D02*
X140231200Y-73694351D01*
X159961600Y-73449200D02*
X159994600Y-73482200D01*
D26*
%TO.N,/SPI1_SCK_2*%
X173568110Y-76516998D02*
X176644802Y-76516998D01*
D31*
X181686668Y-70306732D02*
X181686668Y-70281332D01*
D26*
X173134400Y-76512800D02*
X173563912Y-76512800D01*
X181737000Y-70357064D02*
X181686668Y-70306732D01*
D31*
X194005200Y-66319400D02*
X197967600Y-62357000D01*
D26*
X166687397Y-76491997D02*
X167944800Y-76491997D01*
D31*
X185648600Y-66319400D02*
X194005200Y-66319400D01*
D26*
X163088400Y-75290200D02*
X165485600Y-75290200D01*
D31*
X167958934Y-76477863D02*
X167944800Y-76491997D01*
D26*
X178460400Y-74701400D02*
X179095400Y-74701400D01*
D31*
X181686668Y-70281332D02*
X185648600Y-66319400D01*
D26*
X167944800Y-76491997D02*
X172083952Y-76491997D01*
X181686668Y-70306732D02*
X180469934Y-69089998D01*
X172083952Y-76491997D02*
X172272313Y-76303636D01*
X172272313Y-76303636D02*
X172925236Y-76303636D01*
X176644802Y-76516998D02*
X178460400Y-74701400D01*
X172925236Y-76303636D02*
X173134400Y-76512800D01*
X181737000Y-72059800D02*
X181737000Y-70357064D01*
X165485600Y-75290200D02*
X166687397Y-76491997D01*
D31*
X197967600Y-62357000D02*
X197967600Y-59791600D01*
D26*
X179095400Y-74701400D02*
X181737000Y-72059800D01*
D31*
X167958934Y-75689997D02*
X167958934Y-76477863D01*
D26*
X173563912Y-76512800D02*
X173568110Y-76516998D01*
D29*
%TO.N,/SPI1_SDO_Y*%
X151065000Y-66527200D02*
X152464000Y-66527200D01*
D26*
X152196800Y-67233800D02*
X151490200Y-66527200D01*
X151490200Y-66527200D02*
X151065000Y-66527200D01*
D29*
X152464000Y-66527200D02*
X153099000Y-67162200D01*
%TO.N,/SPI1_SDI_B*%
X155165653Y-63695600D02*
X153643600Y-63695600D01*
X152972000Y-63987200D02*
X153162000Y-64177200D01*
X155918982Y-64448929D02*
X155165653Y-63695600D01*
X151065000Y-63987200D02*
X152972000Y-63987200D01*
X153643600Y-63695600D02*
X153162000Y-64177200D01*
D31*
%TO.N,Net-(J2-Pad12)*%
X169608934Y-75689997D02*
X173619934Y-75689997D01*
X173619934Y-75689997D02*
X173869933Y-75439998D01*
D26*
%TO.N,/SPI2_SDO*%
X128752600Y-66608864D02*
X130210664Y-65150800D01*
X128752600Y-67564000D02*
X128752600Y-66608864D01*
X128752600Y-67741800D02*
X128752600Y-67564000D01*
X125068445Y-69850000D02*
X125285845Y-69632600D01*
D30*
X128752600Y-67564000D02*
X129489200Y-68300600D01*
X129489200Y-68300600D02*
X130149600Y-68300600D01*
D26*
X125285845Y-69632600D02*
X126861800Y-69632600D01*
X130210664Y-65150800D02*
X130594400Y-65150800D01*
X126861800Y-69632600D02*
X128752600Y-67741800D01*
X122490000Y-69850000D02*
X125068445Y-69850000D01*
%TO.N,/SPI1_SDO*%
X124994544Y-67361944D02*
X123725688Y-68630800D01*
X123725688Y-68630800D02*
X121169200Y-68630800D01*
X146115000Y-65257200D02*
X144623000Y-65257200D01*
X121169200Y-68630800D02*
X119950000Y-69850000D01*
D31*
X125019944Y-67361944D02*
X124994544Y-67361944D01*
D26*
X126465088Y-65891400D02*
X124994544Y-67361944D01*
X126585093Y-65891400D02*
X126465088Y-65891400D01*
D31*
X125933200Y-68275200D02*
X125019944Y-67361944D01*
D26*
X144623000Y-65257200D02*
X143992600Y-65887600D01*
%TO.N,/SPI1_SDI*%
X123672600Y-66065400D02*
X124866400Y-64871600D01*
D30*
X143256000Y-62798000D02*
X144445200Y-63987200D01*
X143256000Y-61468000D02*
X143256000Y-62798000D01*
D26*
X121194600Y-66065400D02*
X123672600Y-66065400D01*
X143840200Y-64592200D02*
X144445200Y-63987200D01*
X119950000Y-67310000D02*
X121194600Y-66065400D01*
X144445200Y-63987200D02*
X146115000Y-63987200D01*
D29*
%TO.N,/SPI1_~{CS}*%
X167958934Y-71625996D02*
X168452800Y-71132130D01*
X168046400Y-59258200D02*
X168046400Y-60362600D01*
X168046400Y-60362600D02*
X168440600Y-60756800D01*
X168452800Y-71132130D02*
X168452800Y-60769000D01*
X168452800Y-60769000D02*
X168440600Y-60756800D01*
%TO.N,/SPI2_~{CS}*%
X233095800Y-61544200D02*
X233045000Y-61595000D01*
X233045000Y-69214999D02*
X233045000Y-61595000D01*
X233095800Y-60147200D02*
X233095800Y-61544200D01*
D31*
%TO.N,/SPI2_SDI*%
X128041400Y-62814200D02*
X128041400Y-63880800D01*
D26*
X122490000Y-67310000D02*
X123875800Y-67310000D01*
X123875800Y-67310000D02*
X127305000Y-63880800D01*
X127305000Y-63880800D02*
X128041400Y-63880800D01*
X128041400Y-63880800D02*
X130594400Y-63880800D01*
D31*
X128117600Y-62738000D02*
X128041400Y-62814200D01*
D29*
%TO.N,/SPI2_SCK_Y*%
X136622400Y-74782200D02*
X138200200Y-74782200D01*
D31*
X141564445Y-72816155D02*
X141630400Y-72750200D01*
D29*
X138581200Y-76021000D02*
X138581200Y-75163200D01*
X138200200Y-74782200D02*
X138581200Y-75163200D01*
X138758803Y-76198603D02*
X138581200Y-76021000D01*
D31*
X141630400Y-72750200D02*
X142975400Y-72750200D01*
D29*
%TO.N,/SPI2_SCK_Z*%
X138454200Y-73512200D02*
X138581200Y-73639200D01*
D31*
X140589000Y-77952600D02*
X141189400Y-77352200D01*
X135326600Y-73512200D02*
X134670800Y-74168000D01*
D29*
X136622400Y-73512200D02*
X138454200Y-73512200D01*
D31*
X134670800Y-75438000D02*
X134899400Y-75666600D01*
X134670800Y-74168000D02*
X134670800Y-75438000D01*
X136622400Y-73512200D02*
X135326600Y-73512200D01*
X141189400Y-77352200D02*
X142975400Y-77352200D01*
%TO.N,/SPI2_SDI_B*%
X213639400Y-66004597D02*
X213614000Y-66029997D01*
X213639400Y-60731400D02*
X213639400Y-66004597D01*
X175234600Y-69022022D02*
X175234600Y-64389000D01*
X174920623Y-69335999D02*
X175234600Y-69022022D01*
D29*
X135544400Y-63880800D02*
X137515600Y-63880800D01*
X137515600Y-63880800D02*
X137630200Y-63766200D01*
D31*
X140935200Y-63008000D02*
X140512800Y-62585600D01*
X140935200Y-63893645D02*
X140935200Y-63008000D01*
X140512800Y-62585600D02*
X138810800Y-62585600D01*
X138810800Y-62585600D02*
X137630200Y-63766200D01*
D29*
%TO.N,Net-(J3-Pad8)*%
X234695000Y-72331599D02*
X235026602Y-71999997D01*
X235026602Y-71999997D02*
X242986001Y-71999997D01*
X242986001Y-71999997D02*
X243136000Y-72149996D01*
%TO.N,Net-(J3-Pad9)*%
X237286800Y-65278000D02*
X239064800Y-65278000D01*
X239928400Y-62915800D02*
X238732597Y-61719997D01*
X234695000Y-61595000D02*
X234695000Y-62686200D01*
X239064800Y-65278000D02*
X239928400Y-64414400D01*
X234695000Y-62686200D02*
X237286800Y-65278000D01*
X238732597Y-61719997D02*
X238316000Y-61719997D01*
X239928400Y-64414400D02*
X239928400Y-62915800D01*
D31*
%TO.N,/SPI2_SDI_A*%
X214202900Y-65402997D02*
X214325200Y-65280697D01*
X214325200Y-65280697D02*
X214325200Y-61468000D01*
D29*
X137135600Y-62610800D02*
X137630200Y-62116200D01*
X135544400Y-62610800D02*
X137135600Y-62610800D01*
D31*
X215061800Y-60731400D02*
X216154000Y-60731400D01*
D29*
X140846800Y-62116200D02*
X140935200Y-62204600D01*
X137630200Y-62116200D02*
X140846800Y-62116200D01*
D31*
X214325200Y-61468000D02*
X215061800Y-60731400D01*
D29*
%TO.N,Net-(J3-Pad7)*%
X240614200Y-71299997D02*
X238529202Y-69214999D01*
X238529202Y-69214999D02*
X234695000Y-69214999D01*
D26*
%TO.N,Net-(J3-Pad12)*%
X234695000Y-75310999D02*
X238187002Y-75310999D01*
X238187002Y-75310999D02*
X238316000Y-75439997D01*
D29*
%TO.N,/SPI2_SDO_Z*%
X135544400Y-65150800D02*
X137490800Y-65150800D01*
X137490800Y-65150800D02*
X137567200Y-65227200D01*
D31*
X138958590Y-63619207D02*
X138958590Y-63622300D01*
X139192000Y-63385797D02*
X138958590Y-63619207D01*
X138958590Y-63622300D02*
X137567200Y-65013690D01*
X137567200Y-65013690D02*
X137567200Y-65227200D01*
X176744899Y-62996498D02*
X177571400Y-62169997D01*
X172258302Y-62996498D02*
X176744899Y-62996498D01*
X172135800Y-63119000D02*
X172258302Y-62996498D01*
%TO.N,/SPI2_SDO_Y*%
X176606200Y-77139800D02*
X178649502Y-75096498D01*
D29*
X137236800Y-66420800D02*
X137567200Y-66751200D01*
D31*
X173304200Y-77139800D02*
X176606200Y-77139800D01*
X145588100Y-73807700D02*
X144872356Y-73091956D01*
X145694400Y-75869800D02*
X145588100Y-75763500D01*
X138305700Y-66012700D02*
X139614730Y-66012700D01*
X180088464Y-75096498D02*
X182364000Y-72820962D01*
X140665200Y-67063170D02*
X140665200Y-67097400D01*
X182364000Y-72820962D02*
X182364000Y-71932800D01*
X178649502Y-75096498D02*
X180088464Y-75096498D01*
X137567200Y-66751200D02*
X138305700Y-66012700D01*
X144872356Y-73091956D02*
X144872356Y-70577356D01*
X139614730Y-66012700D02*
X140665200Y-67063170D01*
D29*
X135544400Y-66420800D02*
X137236800Y-66420800D01*
D31*
X145588100Y-75763500D02*
X145588100Y-73807700D01*
D26*
%TO.N,Net-(JP1-A)*%
X148818600Y-71780400D02*
X148178600Y-71780400D01*
X150453400Y-72115200D02*
X149153400Y-72115200D01*
X148178600Y-71780400D02*
X147848400Y-71450200D01*
X149153400Y-72115200D02*
X148818600Y-71780400D01*
%TO.N,Net-(JP1-B)*%
X149478401Y-73385200D02*
X148813401Y-74050200D01*
X150453400Y-73385200D02*
X149478401Y-73385200D01*
X148813401Y-74050200D02*
X147848400Y-74050200D01*
D29*
%TO.N,Net-(JP2-B)*%
X130475200Y-73512200D02*
X130200400Y-73787000D01*
X131672400Y-73512200D02*
X130475200Y-73512200D01*
X130200400Y-73787000D02*
X130200400Y-73930300D01*
X129826500Y-74304200D02*
X128940400Y-74304200D01*
X130200400Y-73930300D02*
X129826500Y-74304200D01*
%TO.N,Net-(JP2-A)*%
X130459000Y-72242200D02*
X129921000Y-71704200D01*
X131672400Y-72242200D02*
X130459000Y-72242200D01*
X129921000Y-71704200D02*
X128940400Y-71704200D01*
D26*
%TO.N,/SPI1_SCK_A*%
X156993400Y-70845200D02*
X157500400Y-70338200D01*
X160659600Y-69134200D02*
X163088400Y-69134200D01*
X157500400Y-70338200D02*
X159455600Y-70338200D01*
X159455600Y-70338200D02*
X160659600Y-69134200D01*
X155403400Y-70845200D02*
X156993400Y-70845200D01*
D31*
%TO.N,/SPI1_SCK_Z*%
X159874155Y-76590200D02*
X163088400Y-76590200D01*
X153949400Y-73864201D02*
X154428401Y-73385200D01*
D26*
X157373400Y-73385200D02*
X157437400Y-73449200D01*
X155403400Y-73385200D02*
X157373400Y-73385200D01*
D31*
X153949400Y-75133200D02*
X153949400Y-73864201D01*
X159718428Y-76745927D02*
X159874155Y-76590200D01*
X154428401Y-73385200D02*
X155403400Y-73385200D01*
D26*
%TO.N,/SPI1_SCK_Y*%
X157119400Y-74655200D02*
X157437400Y-74973200D01*
D31*
X160655000Y-75338710D02*
X160655000Y-73119204D01*
X160046748Y-75946962D02*
X160655000Y-75338710D01*
X160655000Y-73119204D02*
X162040004Y-71734200D01*
X155403400Y-75320393D02*
X155403400Y-74655200D01*
D26*
X155403400Y-74655200D02*
X157119400Y-74655200D01*
D31*
X159677701Y-75946962D02*
X160046748Y-75946962D01*
X162040004Y-71734200D02*
X163088400Y-71734200D01*
X155515303Y-75432296D02*
X155403400Y-75320393D01*
D26*
%TO.N,/SPI1_SCK_B*%
X160324800Y-72593200D02*
X160292194Y-72560594D01*
X160292194Y-71925594D02*
X159969200Y-71602600D01*
X161218500Y-73615876D02*
X162714076Y-73615876D01*
X160292194Y-72560594D02*
X160292194Y-71925594D01*
X155403400Y-72115200D02*
X157373400Y-72115200D01*
X159969200Y-71602600D02*
X157886000Y-71602600D01*
X157886000Y-71602600D02*
X157500400Y-71988200D01*
X162714076Y-73615876D02*
X163088400Y-73990200D01*
X157373400Y-72115200D02*
X157500400Y-71988200D01*
D29*
%TO.N,/SPI2_SCK_A*%
X136622400Y-70972200D02*
X138238800Y-70972200D01*
X139060800Y-70150200D02*
X142975400Y-70150200D01*
X138657400Y-70553600D02*
X139060800Y-70150200D01*
X138238800Y-70972200D02*
X138657400Y-70553600D01*
D26*
%TO.N,/SPI2_SCK_1*%
X186690000Y-68783200D02*
X185871402Y-69601798D01*
X141732000Y-71450200D02*
X142975400Y-71450200D01*
X185871402Y-69601798D02*
X185871402Y-76891598D01*
X185871402Y-76891598D02*
X184734200Y-78028800D01*
%TO.N,/SPI2_SCK_2*%
X233045000Y-75310999D02*
X233934000Y-74421999D01*
X144015548Y-76052200D02*
X142975400Y-76052200D01*
X146075400Y-78112052D02*
X144015548Y-76052200D01*
X146075400Y-78122500D02*
X146075400Y-78112052D01*
D31*
X233934000Y-74421999D02*
X233934000Y-74362997D01*
D29*
%TO.N,/SPI2_SCK_B*%
X136622400Y-72242200D02*
X138618800Y-72242200D01*
D31*
X138657400Y-72203600D02*
X140154980Y-72203600D01*
X140154980Y-72203600D02*
X142703580Y-74752200D01*
X142703580Y-74752200D02*
X142975400Y-74752200D01*
D29*
X138618800Y-72242200D02*
X138657400Y-72203600D01*
%TO.N,Net-(D1-K)*%
X120908950Y-77622400D02*
X122423050Y-77622400D01*
%TD*%
%TA.AperFunction,Conductor*%
%TO.N,+3V3*%
G36*
X147059839Y-60090685D02*
G01*
X147105594Y-60143489D01*
X147116800Y-60195000D01*
X147116800Y-60511329D01*
X147097115Y-60578368D01*
X147090723Y-60587401D01*
X147057531Y-60630127D01*
X147057498Y-60630170D01*
X147057486Y-60630184D01*
X147057482Y-60630191D01*
X146986285Y-60755222D01*
X146986285Y-60755223D01*
X146953198Y-60895248D01*
X146946971Y-60964844D01*
X146950621Y-61032967D01*
X146950799Y-61039601D01*
X146950799Y-61174342D01*
X146948416Y-61198533D01*
X146929805Y-61292096D01*
X146925895Y-61306906D01*
X146920234Y-61323989D01*
X146911431Y-61358859D01*
X146900783Y-61419232D01*
X146897850Y-61431923D01*
X146897253Y-61434000D01*
X146878052Y-61512468D01*
X146878049Y-61512484D01*
X146871758Y-61551470D01*
X146871754Y-61551499D01*
X146865300Y-61632005D01*
X146865300Y-62026693D01*
X146868197Y-62080741D01*
X146868197Y-62080742D01*
X146871029Y-62107075D01*
X146871032Y-62107102D01*
X146879685Y-62160498D01*
X146879685Y-62160500D01*
X146908750Y-62238423D01*
X146929968Y-62295310D01*
X146952355Y-62336309D01*
X146963451Y-62356630D01*
X147049678Y-62471815D01*
X147049814Y-62471972D01*
X147050280Y-62472619D01*
X147052331Y-62475359D01*
X147052280Y-62475397D01*
X147062834Y-62490054D01*
X147066159Y-62495676D01*
X147078501Y-62524196D01*
X147080075Y-62529613D01*
X147085000Y-62564209D01*
X147085000Y-62870186D01*
X147080073Y-62904794D01*
X147078498Y-62910213D01*
X147066157Y-62938726D01*
X147024734Y-63008769D01*
X147021165Y-63014448D01*
X147013782Y-63025518D01*
X147010704Y-63031415D01*
X147010670Y-63031397D01*
X147010120Y-63032549D01*
X147010337Y-63032658D01*
X147001425Y-63050474D01*
X146953828Y-63101625D01*
X146890526Y-63119000D01*
X144700800Y-63119000D01*
X144633761Y-63099315D01*
X144588006Y-63046511D01*
X144576800Y-62995000D01*
X144576800Y-60195000D01*
X144596485Y-60127961D01*
X144649289Y-60082206D01*
X144700800Y-60071000D01*
X146992800Y-60071000D01*
X147059839Y-60090685D01*
G37*
%TD.AperFunction*%
%TD*%
%TA.AperFunction,Conductor*%
%TO.N,+3V3*%
G36*
X151581039Y-68345685D02*
G01*
X151626794Y-68398489D01*
X151638000Y-68450000D01*
X151638000Y-69088587D01*
X151632977Y-69123522D01*
X151619477Y-69169495D01*
X151619476Y-69169500D01*
X151598998Y-69311929D01*
X151598744Y-69315487D01*
X151596678Y-69330821D01*
X151578002Y-69424709D01*
X151574093Y-69439515D01*
X151568422Y-69456630D01*
X151568418Y-69456645D01*
X151559626Y-69491481D01*
X151559624Y-69491488D01*
X151549002Y-69551731D01*
X151544592Y-69569203D01*
X151534304Y-69600249D01*
X151522139Y-69626337D01*
X151510356Y-69645442D01*
X151492496Y-69668030D01*
X151427316Y-69733210D01*
X151427268Y-69733255D01*
X151417135Y-69743391D01*
X151417134Y-69743390D01*
X151417106Y-69743420D01*
X151405904Y-69754621D01*
X151404917Y-69757986D01*
X151397158Y-69768748D01*
X151351706Y-69825156D01*
X151323212Y-69869493D01*
X151274829Y-69966148D01*
X151274827Y-69966155D01*
X151244248Y-70106727D01*
X151244247Y-70106739D01*
X151239263Y-70176429D01*
X151239263Y-70176432D01*
X151249527Y-70319942D01*
X151290135Y-70428816D01*
X151299809Y-70454751D01*
X151333294Y-70516074D01*
X151365590Y-70559216D01*
X151373047Y-70570393D01*
X151404560Y-70623678D01*
X151416901Y-70652194D01*
X151418473Y-70657603D01*
X151423400Y-70692209D01*
X151423400Y-70998186D01*
X151418473Y-71032794D01*
X151416898Y-71038213D01*
X151404557Y-71066726D01*
X151363134Y-71136769D01*
X151359565Y-71142448D01*
X151352182Y-71153518D01*
X151349104Y-71159415D01*
X151349070Y-71159397D01*
X151348519Y-71160550D01*
X151348737Y-71160659D01*
X151347249Y-71163632D01*
X151347248Y-71163635D01*
X151305957Y-71246176D01*
X151258362Y-71297325D01*
X151195060Y-71314700D01*
X149562698Y-71314700D01*
X149525832Y-71317601D01*
X149525826Y-71317602D01*
X149377264Y-71360764D01*
X149307394Y-71360565D01*
X149254987Y-71329368D01*
X149218611Y-71292991D01*
X149218607Y-71292988D01*
X149154008Y-71249824D01*
X149109203Y-71196212D01*
X149098899Y-71146722D01*
X149098899Y-70902329D01*
X149098898Y-70902323D01*
X149092491Y-70842716D01*
X149042197Y-70707871D01*
X149042193Y-70707864D01*
X148955947Y-70592655D01*
X148955944Y-70592652D01*
X148840735Y-70506406D01*
X148840728Y-70506402D01*
X148705883Y-70456109D01*
X148700741Y-70455556D01*
X148636191Y-70428816D01*
X148596344Y-70371423D01*
X148590000Y-70332267D01*
X148590000Y-68450000D01*
X148609685Y-68382961D01*
X148662489Y-68337206D01*
X148714000Y-68326000D01*
X151514000Y-68326000D01*
X151581039Y-68345685D01*
G37*
%TD.AperFunction*%
%TD*%
%TA.AperFunction,Conductor*%
%TO.N,GND*%
G36*
X135071039Y-69117585D02*
G01*
X135116794Y-69170389D01*
X135128000Y-69221900D01*
X135128000Y-72904018D01*
X135108315Y-72971057D01*
X135066001Y-73011405D01*
X134980296Y-73060887D01*
X134980293Y-73060889D01*
X134219489Y-73821693D01*
X134219485Y-73821699D01*
X134145236Y-73950301D01*
X134145235Y-73950304D01*
X134106800Y-74093748D01*
X134106800Y-75466400D01*
X134087115Y-75533439D01*
X134034311Y-75579194D01*
X133982800Y-75590400D01*
X130426000Y-75590400D01*
X130358961Y-75570715D01*
X130313206Y-75517911D01*
X130302000Y-75466400D01*
X130302000Y-74870718D01*
X130321685Y-74803679D01*
X130338315Y-74783041D01*
X130744513Y-74376843D01*
X130746952Y-74373194D01*
X130750551Y-74367806D01*
X130804165Y-74323003D01*
X130853652Y-74312700D01*
X132563086Y-74312700D01*
X132563094Y-74312700D01*
X132599969Y-74309798D01*
X132599971Y-74309797D01*
X132599973Y-74309797D01*
X132641591Y-74297705D01*
X132757798Y-74263944D01*
X132758968Y-74263251D01*
X132761984Y-74261469D01*
X132825106Y-74244200D01*
X133096000Y-74244200D01*
X133096000Y-73951068D01*
X133100924Y-73916473D01*
X133144997Y-73764773D01*
X133144998Y-73764767D01*
X133147900Y-73727894D01*
X133147900Y-73296506D01*
X133144998Y-73259631D01*
X133117765Y-73165896D01*
X133100924Y-73107928D01*
X133096000Y-73073333D01*
X133096000Y-72681068D01*
X133100924Y-72646473D01*
X133144997Y-72494773D01*
X133144998Y-72494767D01*
X133147899Y-72457901D01*
X133147900Y-72457894D01*
X133147900Y-72026506D01*
X133144998Y-71989631D01*
X133121435Y-71908528D01*
X133100924Y-71837928D01*
X133096000Y-71803333D01*
X133096000Y-71411068D01*
X133100924Y-71376473D01*
X133144997Y-71224773D01*
X133144998Y-71224767D01*
X133147899Y-71187901D01*
X133147900Y-71187894D01*
X133147900Y-70756506D01*
X133144998Y-70719631D01*
X133100924Y-70567928D01*
X133096000Y-70533333D01*
X133096000Y-69556899D01*
X133115685Y-69489860D01*
X133132313Y-69469224D01*
X133467321Y-69134216D01*
X133528643Y-69100734D01*
X133555001Y-69097900D01*
X135004000Y-69097900D01*
X135071039Y-69117585D01*
G37*
%TD.AperFunction*%
%TD*%
%TA.AperFunction,Conductor*%
%TO.N,+3V3*%
G36*
X128551848Y-59950958D02*
G01*
X128598745Y-59967368D01*
X128598750Y-59967369D01*
X128777996Y-59987565D01*
X128778000Y-59987565D01*
X128778004Y-59987565D01*
X128957249Y-59967369D01*
X128957252Y-59967368D01*
X128957255Y-59967368D01*
X129004152Y-59950957D01*
X129045107Y-59944000D01*
X131448000Y-59944000D01*
X131515039Y-59963685D01*
X131560794Y-60016489D01*
X131572000Y-60068000D01*
X131572000Y-60221026D01*
X131552315Y-60288065D01*
X131535681Y-60308707D01*
X131511232Y-60333155D01*
X131511229Y-60333159D01*
X131422201Y-60477494D01*
X131422196Y-60477505D01*
X131368851Y-60638490D01*
X131358700Y-60737847D01*
X131358700Y-60765093D01*
X131353677Y-60800029D01*
X131340976Y-60843282D01*
X131320500Y-60985701D01*
X131320500Y-61896093D01*
X131323397Y-61950141D01*
X131323397Y-61950142D01*
X131326229Y-61976475D01*
X131326232Y-61976502D01*
X131334885Y-62029898D01*
X131334885Y-62029900D01*
X131385166Y-62164705D01*
X131385168Y-62164710D01*
X131418653Y-62226033D01*
X131418654Y-62226035D01*
X131425917Y-62235738D01*
X131443687Y-62269087D01*
X131481211Y-62376323D01*
X131481215Y-62376331D01*
X131545393Y-62478468D01*
X131564400Y-62544440D01*
X131564400Y-62763786D01*
X131559473Y-62798394D01*
X131557898Y-62803813D01*
X131545557Y-62832326D01*
X131504134Y-62902369D01*
X131500565Y-62908048D01*
X131493182Y-62919118D01*
X131490104Y-62925015D01*
X131487452Y-62923630D01*
X131452657Y-62968510D01*
X131386789Y-62991816D01*
X131380036Y-62992000D01*
X129167100Y-62992000D01*
X129100061Y-62972315D01*
X129054306Y-62919511D01*
X129043100Y-62868000D01*
X129043099Y-62265129D01*
X129043098Y-62265123D01*
X129039939Y-62235738D01*
X129036691Y-62205517D01*
X128986396Y-62070669D01*
X128986395Y-62070668D01*
X128986393Y-62070664D01*
X128900147Y-61955455D01*
X128900144Y-61955452D01*
X128784935Y-61869206D01*
X128784928Y-61869202D01*
X128650082Y-61818908D01*
X128650083Y-61818908D01*
X128590483Y-61812501D01*
X128590481Y-61812500D01*
X128590473Y-61812500D01*
X128590465Y-61812500D01*
X128140000Y-61812500D01*
X128072961Y-61792815D01*
X128027206Y-61740011D01*
X128016000Y-61688500D01*
X128016000Y-60068000D01*
X128035685Y-60000961D01*
X128088489Y-59955206D01*
X128140000Y-59944000D01*
X128510893Y-59944000D01*
X128551848Y-59950958D01*
G37*
%TD.AperFunction*%
%TD*%
%TA.AperFunction,Conductor*%
%TO.N,GND*%
G36*
X153689239Y-68757385D02*
G01*
X153734994Y-68810189D01*
X153746200Y-68861700D01*
X153746200Y-73218421D01*
X153726515Y-73285460D01*
X153709881Y-73306102D01*
X153596026Y-73419956D01*
X153596027Y-73419957D01*
X153498084Y-73517900D01*
X153450169Y-73600893D01*
X153450169Y-73600894D01*
X153423833Y-73646507D01*
X153414209Y-73682430D01*
X153414209Y-73682432D01*
X153385400Y-73789949D01*
X153385400Y-74513760D01*
X153365715Y-74580799D01*
X153349081Y-74601441D01*
X153319584Y-74630937D01*
X153223611Y-74783676D01*
X153164031Y-74953945D01*
X153164030Y-74953950D01*
X153143835Y-75133196D01*
X153143835Y-75133203D01*
X153162641Y-75300117D01*
X153150586Y-75368939D01*
X153103237Y-75420318D01*
X153039421Y-75438000D01*
X149399800Y-75438000D01*
X149332761Y-75418315D01*
X149287006Y-75365511D01*
X149275800Y-75314000D01*
X149275800Y-74526582D01*
X149295485Y-74459543D01*
X149312119Y-74438901D01*
X149529001Y-74222019D01*
X149590324Y-74188534D01*
X149616682Y-74185700D01*
X151344086Y-74185700D01*
X151344094Y-74185700D01*
X151380969Y-74182798D01*
X151380971Y-74182797D01*
X151380973Y-74182797D01*
X151422591Y-74170705D01*
X151538798Y-74136944D01*
X151539968Y-74136251D01*
X151542984Y-74134469D01*
X151606106Y-74117200D01*
X151714200Y-74117200D01*
X151714200Y-74070708D01*
X151733885Y-74003669D01*
X151750520Y-73983026D01*
X151796476Y-73937070D01*
X151796481Y-73937065D01*
X151880144Y-73795598D01*
X151925998Y-73637769D01*
X151928900Y-73600894D01*
X151928900Y-73169506D01*
X151925998Y-73132631D01*
X151880144Y-72974802D01*
X151796481Y-72833335D01*
X151796478Y-72833332D01*
X151791698Y-72827169D01*
X151794150Y-72825266D01*
X151767555Y-72776621D01*
X151772504Y-72706926D01*
X151793340Y-72674504D01*
X151791698Y-72673231D01*
X151796475Y-72667070D01*
X151796481Y-72667065D01*
X151880144Y-72525598D01*
X151925998Y-72367769D01*
X151928900Y-72330894D01*
X151928900Y-71899506D01*
X151925998Y-71862631D01*
X151880144Y-71704802D01*
X151796481Y-71563335D01*
X151796478Y-71563332D01*
X151791698Y-71557169D01*
X151794150Y-71555266D01*
X151767555Y-71506621D01*
X151772504Y-71436926D01*
X151793340Y-71404504D01*
X151791698Y-71403231D01*
X151796475Y-71397070D01*
X151796481Y-71397065D01*
X151880144Y-71255598D01*
X151925998Y-71097769D01*
X151928900Y-71060894D01*
X151928900Y-70629506D01*
X151925998Y-70592631D01*
X151880144Y-70434802D01*
X151796481Y-70293335D01*
X151796479Y-70293333D01*
X151796476Y-70293329D01*
X151776960Y-70273813D01*
X151743475Y-70212490D01*
X151748459Y-70142798D01*
X151776960Y-70098450D01*
X151782038Y-70093371D01*
X151782044Y-70093368D01*
X151901968Y-69973444D01*
X151991003Y-69829097D01*
X152044349Y-69668108D01*
X152049755Y-69615188D01*
X152058550Y-69580342D01*
X152066051Y-69562235D01*
X152104500Y-69368941D01*
X152104500Y-69311919D01*
X152124185Y-69244880D01*
X152140819Y-69224238D01*
X152591038Y-68774019D01*
X152652361Y-68740534D01*
X152678719Y-68737700D01*
X153622200Y-68737700D01*
X153689239Y-68757385D01*
G37*
%TD.AperFunction*%
%TD*%
%TA.AperFunction,Conductor*%
%TO.N,+3V3*%
G36*
X132533539Y-70149085D02*
G01*
X132579294Y-70201889D01*
X132590500Y-70253400D01*
X132590500Y-70533334D01*
X132595544Y-70604566D01*
X132600467Y-70639156D01*
X132600470Y-70639170D01*
X132615491Y-70708940D01*
X132615499Y-70708972D01*
X132637476Y-70784613D01*
X132642400Y-70819209D01*
X132642400Y-71125186D01*
X132637477Y-71159780D01*
X132615496Y-71235441D01*
X132615493Y-71235453D01*
X132600471Y-71305224D01*
X132600469Y-71305232D01*
X132596208Y-71335174D01*
X132567273Y-71398770D01*
X132508548Y-71436628D01*
X132473445Y-71441700D01*
X130781698Y-71441700D01*
X130744836Y-71444601D01*
X130744826Y-71444603D01*
X130743354Y-71445031D01*
X130742499Y-71445028D01*
X130738604Y-71445740D01*
X130738471Y-71445016D01*
X130673484Y-71444825D01*
X130621089Y-71413632D01*
X130367546Y-71160088D01*
X130367545Y-71160087D01*
X130252810Y-71083424D01*
X130216009Y-71068181D01*
X130161606Y-71024339D01*
X130147282Y-70996955D01*
X130134196Y-70961869D01*
X130134193Y-70961864D01*
X130047947Y-70846655D01*
X130047944Y-70846652D01*
X129932735Y-70760406D01*
X129932728Y-70760402D01*
X129798467Y-70710326D01*
X129742533Y-70668455D01*
X129718116Y-70602990D01*
X129717800Y-70594144D01*
X129717800Y-70253400D01*
X129737485Y-70186361D01*
X129790289Y-70140606D01*
X129841800Y-70129400D01*
X132466500Y-70129400D01*
X132533539Y-70149085D01*
G37*
%TD.AperFunction*%
%TD*%
%TA.AperFunction,Conductor*%
%TO.N,GND*%
G36*
X132811939Y-60881385D02*
G01*
X132857694Y-60934189D01*
X132868900Y-60985700D01*
X132868900Y-66932000D01*
X132849215Y-66999039D01*
X132796411Y-67044794D01*
X132744900Y-67056000D01*
X129504100Y-67056000D01*
X129437061Y-67036315D01*
X129391306Y-66983511D01*
X129380100Y-66932000D01*
X129380100Y-66920145D01*
X129399785Y-66853106D01*
X129416419Y-66832464D01*
X130261264Y-65987619D01*
X130322587Y-65954134D01*
X130348945Y-65951300D01*
X131485086Y-65951300D01*
X131485094Y-65951300D01*
X131521969Y-65948398D01*
X131521971Y-65948397D01*
X131521973Y-65948397D01*
X131563591Y-65936305D01*
X131679798Y-65902544D01*
X131821265Y-65818881D01*
X131937481Y-65702665D01*
X132021144Y-65561198D01*
X132066998Y-65403369D01*
X132069900Y-65366494D01*
X132069900Y-64935106D01*
X132066998Y-64898231D01*
X132021144Y-64740402D01*
X131937481Y-64598935D01*
X131937478Y-64598932D01*
X131932698Y-64592769D01*
X131935150Y-64590866D01*
X131908555Y-64542221D01*
X131913504Y-64472526D01*
X131934340Y-64440104D01*
X131932698Y-64438831D01*
X131937475Y-64432670D01*
X131937481Y-64432665D01*
X132021144Y-64291198D01*
X132066998Y-64133369D01*
X132069900Y-64096494D01*
X132069900Y-63665106D01*
X132066998Y-63628231D01*
X132060770Y-63606796D01*
X132021145Y-63470406D01*
X132021144Y-63470403D01*
X132021144Y-63470402D01*
X131937481Y-63328935D01*
X131937478Y-63328932D01*
X131932698Y-63322769D01*
X131935150Y-63320866D01*
X131908555Y-63272221D01*
X131913504Y-63202526D01*
X131934340Y-63170104D01*
X131932698Y-63168831D01*
X131937475Y-63162670D01*
X131937481Y-63162665D01*
X132021144Y-63021198D01*
X132066998Y-62863369D01*
X132069900Y-62826494D01*
X132069900Y-62395106D01*
X132066998Y-62358231D01*
X132021144Y-62200402D01*
X131937481Y-62058935D01*
X131937479Y-62058933D01*
X131937476Y-62058929D01*
X131862319Y-61983772D01*
X131828834Y-61922449D01*
X131826000Y-61896091D01*
X131826000Y-60985700D01*
X131845685Y-60918661D01*
X131898489Y-60872906D01*
X131950000Y-60861700D01*
X132744900Y-60861700D01*
X132811939Y-60881385D01*
G37*
%TD.AperFunction*%
%TD*%
%TA.AperFunction,Conductor*%
%TO.N,GND*%
G36*
X148119839Y-60881385D02*
G01*
X148140481Y-60898019D01*
X148353181Y-61110719D01*
X148386666Y-61172042D01*
X148389500Y-61198400D01*
X148389500Y-67037170D01*
X148369815Y-67104209D01*
X148317011Y-67149964D01*
X148266234Y-67161168D01*
X144701534Y-67182261D01*
X144634379Y-67162973D01*
X144588312Y-67110441D01*
X144576800Y-67058263D01*
X144576800Y-66486840D01*
X144596485Y-66419801D01*
X144613119Y-66399159D01*
X144622416Y-66389862D01*
X144718389Y-66237122D01*
X144777968Y-66066855D01*
X144778355Y-66063416D01*
X144779225Y-66061345D01*
X144779517Y-66060068D01*
X144779740Y-66060119D01*
X144805414Y-65999003D01*
X144863005Y-65959442D01*
X144932842Y-65957298D01*
X144964694Y-65970557D01*
X145029602Y-66008944D01*
X145039498Y-66011819D01*
X145187426Y-66054797D01*
X145187429Y-66054797D01*
X145187431Y-66054798D01*
X145224306Y-66057700D01*
X145224314Y-66057700D01*
X147005686Y-66057700D01*
X147005694Y-66057700D01*
X147042569Y-66054798D01*
X147042571Y-66054797D01*
X147042573Y-66054797D01*
X147084191Y-66042705D01*
X147200398Y-66008944D01*
X147303055Y-65948232D01*
X147333433Y-65930268D01*
X147361101Y-65922698D01*
X147370799Y-65913000D01*
X147370800Y-65913000D01*
X147370800Y-65912999D01*
X147385228Y-65898571D01*
X147390485Y-65880669D01*
X147407120Y-65860026D01*
X147458076Y-65809070D01*
X147458081Y-65809065D01*
X147541744Y-65667598D01*
X147587598Y-65509769D01*
X147590500Y-65472894D01*
X147590500Y-65041506D01*
X147587598Y-65004631D01*
X147541744Y-64846802D01*
X147458081Y-64705335D01*
X147458078Y-64705332D01*
X147453298Y-64699169D01*
X147455750Y-64697266D01*
X147429155Y-64648621D01*
X147434104Y-64578926D01*
X147454940Y-64546504D01*
X147453298Y-64545231D01*
X147458075Y-64539070D01*
X147458081Y-64539065D01*
X147541744Y-64397598D01*
X147587598Y-64239769D01*
X147590500Y-64202894D01*
X147590500Y-63771506D01*
X147587598Y-63734631D01*
X147541744Y-63576802D01*
X147458081Y-63435335D01*
X147458078Y-63435332D01*
X147453298Y-63429169D01*
X147455750Y-63427266D01*
X147429155Y-63378621D01*
X147434104Y-63308926D01*
X147454940Y-63276504D01*
X147453298Y-63275231D01*
X147458075Y-63269070D01*
X147458081Y-63269065D01*
X147541744Y-63127598D01*
X147587598Y-62969769D01*
X147590500Y-62932894D01*
X147590500Y-62501506D01*
X147587598Y-62464631D01*
X147541744Y-62306802D01*
X147458081Y-62165335D01*
X147458079Y-62165333D01*
X147458076Y-62165329D01*
X147407119Y-62114372D01*
X147373634Y-62053049D01*
X147370800Y-62026691D01*
X147370800Y-61632015D01*
X147377094Y-61593012D01*
X147396149Y-61535508D01*
X147401555Y-61482588D01*
X147410354Y-61447734D01*
X147417849Y-61429640D01*
X147417851Y-61429636D01*
X147456300Y-61236340D01*
X147456300Y-61039260D01*
X147456300Y-61039257D01*
X147456299Y-61039255D01*
X147450459Y-61009891D01*
X147456686Y-60940299D01*
X147499550Y-60885122D01*
X147565440Y-60861878D01*
X147572076Y-60861700D01*
X148052800Y-60861700D01*
X148119839Y-60881385D01*
G37*
%TD.AperFunction*%
%TD*%
M02*
