%TF.GenerationSoftware,KiCad,Pcbnew,8.0.1*%
%TF.CreationDate,2024-07-22T07:52:40-07:00*%
%TF.ProjectId,PMOD_differential_driver,504d4f44-5f64-4696-9666-6572656e7469,1*%
%TF.SameCoordinates,Original*%
%TF.FileFunction,Paste,Top*%
%TF.FilePolarity,Positive*%
%FSLAX46Y46*%
G04 Gerber Fmt 4.6, Leading zero omitted, Abs format (unit mm)*
G04 Created by KiCad (PCBNEW 8.0.1) date 2024-07-22 07:52:40*
%MOMM*%
%LPD*%
G01*
G04 APERTURE LIST*
G04 Aperture macros list*
%AMRoundRect*
0 Rectangle with rounded corners*
0 $1 Rounding radius*
0 $2 $3 $4 $5 $6 $7 $8 $9 X,Y pos of 4 corners*
0 Add a 4 corners polygon primitive as box body*
4,1,4,$2,$3,$4,$5,$6,$7,$8,$9,$2,$3,0*
0 Add four circle primitives for the rounded corners*
1,1,$1+$1,$2,$3*
1,1,$1+$1,$4,$5*
1,1,$1+$1,$6,$7*
1,1,$1+$1,$8,$9*
0 Add four rect primitives between the rounded corners*
20,1,$1+$1,$2,$3,$4,$5,0*
20,1,$1+$1,$4,$5,$6,$7,0*
20,1,$1+$1,$6,$7,$8,$9,0*
20,1,$1+$1,$8,$9,$2,$3,0*%
G04 Aperture macros list end*
%ADD10RoundRect,0.200000X0.200000X0.275000X-0.200000X0.275000X-0.200000X-0.275000X0.200000X-0.275000X0*%
%ADD11RoundRect,0.200000X-0.200000X-0.275000X0.200000X-0.275000X0.200000X0.275000X-0.200000X0.275000X0*%
%ADD12RoundRect,0.200000X-0.275000X0.200000X-0.275000X-0.200000X0.275000X-0.200000X0.275000X0.200000X0*%
%ADD13RoundRect,0.218750X0.218750X0.256250X-0.218750X0.256250X-0.218750X-0.256250X0.218750X-0.256250X0*%
%ADD14RoundRect,0.150000X-0.825000X-0.150000X0.825000X-0.150000X0.825000X0.150000X-0.825000X0.150000X0*%
%ADD15RoundRect,0.225000X-0.225000X-0.250000X0.225000X-0.250000X0.225000X0.250000X-0.225000X0.250000X0*%
G04 APERTURE END LIST*
D10*
%TO.C,R22*%
X169608934Y-75689997D03*
X167958934Y-75689997D03*
%TD*%
%TO.C,R7*%
X159087400Y-73449200D03*
X157437400Y-73449200D03*
%TD*%
%TO.C,R10*%
X139217200Y-65227200D03*
X137567200Y-65227200D03*
%TD*%
D11*
%TO.C,R12*%
X233045000Y-72331599D03*
X234695000Y-72331599D03*
%TD*%
D12*
%TO.C,R19*%
X157500400Y-70338200D03*
X157500400Y-71988200D03*
%TD*%
D13*
%TO.C,D1*%
X120908950Y-77622400D03*
X119333950Y-77622400D03*
%TD*%
D14*
%TO.C,U3*%
X130594400Y-62610800D03*
X130594400Y-63880800D03*
X130594400Y-65150800D03*
X130594400Y-66420800D03*
X135544400Y-66420800D03*
X135544400Y-65150800D03*
X135544400Y-63880800D03*
X135544400Y-62610800D03*
%TD*%
D15*
%TO.C,C2*%
X151104000Y-69270400D03*
X152654000Y-69270400D03*
%TD*%
%TO.C,C1*%
X146455800Y-61137800D03*
X148005800Y-61137800D03*
%TD*%
D12*
%TO.C,R3*%
X153162000Y-62527200D03*
X153162000Y-64177200D03*
%TD*%
D11*
%TO.C,R13*%
X138581200Y-75163200D03*
X140231200Y-75163200D03*
%TD*%
%TO.C,R9*%
X137567200Y-66751200D03*
X139217200Y-66751200D03*
%TD*%
D14*
%TO.C,U1*%
X146115000Y-62717200D03*
X146115000Y-63987200D03*
X146115000Y-65257200D03*
X146115000Y-66527200D03*
X151065000Y-66527200D03*
X151065000Y-65257200D03*
X151065000Y-63987200D03*
X151065000Y-62717200D03*
%TD*%
D10*
%TO.C,R14*%
X140231200Y-73639200D03*
X138581200Y-73639200D03*
%TD*%
D11*
%TO.C,R2*%
X168021934Y-73911997D03*
X169671934Y-73911997D03*
%TD*%
D10*
%TO.C,R11*%
X234695000Y-69214999D03*
X233045000Y-69214999D03*
%TD*%
D12*
%TO.C,R8*%
X137630200Y-62116200D03*
X137630200Y-63766200D03*
%TD*%
D15*
%TO.C,C3*%
X130759200Y-61036200D03*
X132309200Y-61036200D03*
%TD*%
D10*
%TO.C,R4*%
X154749000Y-65638200D03*
X153099000Y-65638200D03*
%TD*%
D15*
%TO.C,C4*%
X132054000Y-69372000D03*
X133604000Y-69372000D03*
%TD*%
D14*
%TO.C,U4*%
X131672400Y-70972200D03*
X131672400Y-72242200D03*
X131672400Y-73512200D03*
X131672400Y-74782200D03*
X136622400Y-74782200D03*
X136622400Y-73512200D03*
X136622400Y-72242200D03*
X136622400Y-70972200D03*
%TD*%
%TO.C,U2*%
X150453400Y-70845200D03*
X150453400Y-72115200D03*
X150453400Y-73385200D03*
X150453400Y-74655200D03*
X155403400Y-74655200D03*
X155403400Y-73385200D03*
X155403400Y-72115200D03*
X155403400Y-70845200D03*
%TD*%
D11*
%TO.C,R21*%
X168440600Y-60756800D03*
X170090600Y-60756800D03*
%TD*%
%TO.C,R6*%
X157437400Y-74973200D03*
X159087400Y-74973200D03*
%TD*%
%TO.C,R24*%
X233045000Y-61595000D03*
X234695000Y-61595000D03*
%TD*%
D10*
%TO.C,R23*%
X234695000Y-75310999D03*
X233045000Y-75310999D03*
%TD*%
D12*
%TO.C,R20*%
X138657400Y-70553600D03*
X138657400Y-72203600D03*
%TD*%
D11*
%TO.C,R5*%
X153099000Y-67162200D03*
X154749000Y-67162200D03*
%TD*%
D10*
%TO.C,R15*%
X124073050Y-77622400D03*
X122423050Y-77622400D03*
%TD*%
%TO.C,R1*%
X169608934Y-71625996D03*
X167958934Y-71625996D03*
%TD*%
M02*
