M48
; DRILL file {KiCad 8.0.1} date 2024-07-22T07:52:40-0700
; FORMAT={-:-/ absolute / inch / decimal}
; #@! TF.CreationDate,2024-07-22T07:52:40-07:00
; #@! TF.GenerationSoftware,Kicad,Pcbnew,8.0.1
; #@! TF.FileFunction,Plated,1,4,PTH
FMAT,2
INCH
; #@! TA.AperFunction,Plated,PTH,ViaDrill
T1C0.0118
; #@! TA.AperFunction,Plated,PTH,ComponentDrill
T2C0.0197
; #@! TA.AperFunction,Plated,PTH,ComponentDrill
T3C0.0354
; #@! TA.AperFunction,Plated,PTH,ComponentDrill
T4C0.0394
; #@! TA.AperFunction,Plated,PTH,ComponentDrill
T5C0.0709
%
G90
G05
T1
X4.65Y-2.33
X4.687Y-2.703
X4.688Y-2.601
X4.689Y-2.801
X4.691Y-2.502
X4.81Y-2.31
X4.87Y-2.799
X4.881Y-2.499
X4.8847Y-2.5503
X4.885Y-2.723
X4.9085Y-3.0215
X4.91Y-2.33
X4.916Y-2.554
X4.9837Y-2.5941
X4.988Y-2.89
X4.995Y-2.858
X5.0139Y-2.603
X5.023Y-2.843
X5.07Y-2.33
X5.199Y-2.602
X5.205Y-2.442
X5.243Y-2.938
X5.253Y-2.771
X5.311Y-2.979
X5.433Y-3.0096
X5.4629Y-2.9999
X5.48Y-2.4955
X5.48Y-2.527
X5.5127Y-3.0913
X5.5166Y-2.5177
X5.535Y-3.069
X5.538Y-2.6416
X5.5478Y-3.0152
X5.5481Y-2.7951
X5.5486Y-2.4175
X5.5486Y-2.449
X5.5486Y-2.5155
X5.5493Y-2.9297
X5.5548Y-2.8413
X5.5569Y-2.9681
X5.5695Y-2.64
X5.5734Y-2.8668
X5.58Y-2.813
X5.632Y-2.534
X5.663Y-2.543
X5.669Y-2.594
X5.6946Y-2.6124
X5.7036Y-2.7786
X5.7323Y-2.8348
X5.7338Y-2.7697
X5.736Y-2.987
X5.744Y-2.864
X5.751Y-3.0757
X5.7549Y-3.0443
X5.7667Y-2.98
X5.81Y-2.607
X5.826Y-2.446
X5.93Y-2.33
X5.9625Y-2.6581
X5.982Y-2.929
X5.989Y-2.763
X5.992Y-2.647
X6.06Y-2.559
X6.061Y-2.958
X6.073Y-2.33
X6.0958Y-2.5382
X6.1226Y-2.9698
X6.1379Y-2.574
X6.1385Y-2.5374
X6.1546Y-2.9704
X6.1634Y-2.518
X6.2047Y-2.5323
X6.227Y-2.51
X6.2607Y-2.8588
X6.2865Y-2.99
X6.2881Y-3.0215
X6.2987Y-2.961
X6.299Y-2.893
X6.312Y-2.858
X6.3177Y-3.0375
X6.325Y-2.5025
X6.3354Y-2.8369
X6.345Y-2.53
X6.3472Y-2.8983
X6.3636Y-2.8714
X6.475Y-2.335
X6.48Y-2.772
X6.4921Y-2.8011
X6.5791Y-2.9099
X6.615Y-2.873
X6.616Y-2.333
X6.718Y-2.43
X6.719Y-2.821
X6.723Y-2.909
X6.7357Y-2.4039
X6.736Y-2.6398
X6.7498Y-2.5009
X6.777Y-2.485
X6.7926Y-3.0288
X6.823Y-3.037
X6.8866Y-2.7298
X6.899Y-2.535
X6.913Y-2.747
X6.9291Y-2.5441
X6.937Y-2.77
X6.942Y-2.687
X6.9553Y-2.9203
X6.9595Y-2.4476
X6.9652Y-2.7117
X6.9671Y-2.7849
X6.991Y-2.4476
X7.051Y-2.4897
X7.1797Y-2.8005
X7.1797Y-2.832
X7.273Y-3.072
X7.28Y-2.5383
X7.3038Y-3.0787
X7.35Y-2.708
X7.3819Y-2.711
X7.5Y-2.39
X7.5Y-3.06
X7.6969Y-2.39
X7.6969Y-3.06
X7.8937Y-2.39
X7.8937Y-3.06
X8.0906Y-2.39
X8.0906Y-3.06
X8.2874Y-2.39
X8.2874Y-3.06
X8.41Y-2.5996
X8.4332Y-2.5749
X8.8831Y-2.64
X9.0131Y-3.08
X9.08Y-2.64
X9.175Y-2.886
X9.177Y-2.368
X9.21Y-2.9277
X9.21Y-3.08
X9.2304Y-2.903
X9.473Y-2.8071
X9.79Y-2.5931
X9.79Y-2.79
T2
X4.73Y-2.29
X4.947Y-2.47
X4.958Y-2.688
X4.97Y-2.33
X5.044Y-2.47
X5.071Y-3.071
X5.124Y-2.689
X5.283Y-3.07
X5.421Y-2.32
X5.64Y-2.42
X6.277Y-2.705
X6.555Y-2.409
X6.559Y-2.706
X6.669Y-2.707
X6.671Y-2.601
X6.691Y-2.291
X7.794Y-2.354
X7.991Y-3.023
X8.192Y-2.354
X8.411Y-2.391
X8.447Y-3.023
X8.451Y-2.851
X8.51Y-2.391
X8.934Y-2.72
X8.935Y-2.81
X9.051Y-2.345
T3
X6.8453Y-2.4299
X6.8453Y-2.5201
X6.8453Y-2.8799
X6.8453Y-2.9701
X7.035Y-2.5996
X7.035Y-2.6799
X7.035Y-2.7602
X7.035Y-2.8406
X7.1051Y-2.5594
X7.1051Y-2.6398
X7.1051Y-2.7201
X7.1051Y-2.8004
X9.3825Y-2.4299
X9.3825Y-2.5201
X9.3825Y-2.8799
X9.3825Y-2.9701
X9.5723Y-2.5996
X9.5723Y-2.6799
X9.5723Y-2.7602
X9.5723Y-2.8406
X9.6424Y-2.5594
X9.6424Y-2.6398
X9.6424Y-2.7201
X9.6424Y-2.8004
T4
X4.7281Y-2.45
X4.7281Y-2.55
X4.7281Y-2.65
X4.7281Y-2.75
X4.7281Y-2.85
X4.7281Y-2.95
X4.8281Y-2.45
X4.8281Y-2.55
X4.8281Y-2.65
X4.8281Y-2.75
X4.8281Y-2.85
X4.8281Y-2.95
T5
X7.065Y-2.3799
X7.065Y-3.0201
X9.6022Y-2.3799
X9.6022Y-3.0201
M30
